<?xml version="1.0" encoding="UTF-8"?><svg id="artwork" xmlns="http://www.w3.org/2000/svg" viewBox="0 0 574.95 310.54"><defs><style>.cls-1{fill:#61223b;}.cls-2{letter-spacing:-.05em;}.cls-3{letter-spacing:.01em;}.cls-4{letter-spacing:-.02em;}.cls-5{letter-spacing:0em;}.cls-6{fill:#b6b6b6;}.cls-7{letter-spacing:0em;}.cls-8{letter-spacing:.01em;}.cls-9{fill:#72253d;}.cls-10{fill:#caa258;}.cls-11{font-family:Raleway-SemiBold, Raleway;font-size:15px;font-weight:600;}</style></defs><text class="cls-11" transform="translate(.04 -27.13)"><tspan class="cls-9"><tspan class="cls-3" x="0" y="0">SU Corpo</tspan><tspan class="cls-5" x="69.18" y="0">r</tspan><tspan class="cls-8" x="74.89" y="0">a</tspan><tspan class="cls-7" x="83.5" y="0">t</tspan><tspan class="cls-3" x="89.02" y="0">e</tspan></tspan><tspan class="cls-6"><tspan class="cls-2" x="0" y="18">V</tspan><tspan class="cls-3" x="9.42" y="18">ertica</tspan><tspan class="cls-4" x="51.19" y="18">l</tspan></tspan></text><path class="cls-10" d="M142.52,104.04c0-14.86,6.42-22.27,9.97-25.65l-.4-.71c-55.44,0-70.15,0-73.46,0h-.4c-.06,0-.14,0-.22,0-.03,0-.06,0-.09,0-.08,0-.12,0-.14,0v8.21h3.75v72.27c0,9.76.28,23.2,5.8,35.7,5.43,12.29,13.15,21.46,26.55,21.46s27.67-14.56,10.71-37.35c-12.61-16.95-34.67-32.3-34.67-67.45,0-14.6,5.3-22.09,7.59-24.64h15.11c-1.71,2.32-6.44,9.92-6.44,22.89,0,42.35,43.82,56.13,43.82,87.21,0,14.82-11.82,30.57-25.04,32.57l-.21,1.33c3.53,1.35,7.42,2.35,11.06,2.99,5.17-.22,48.66-12.22,48.66-50.02s-41.95-46.37-41.95-78.82ZM90.48,147.58c.1-.02.42-.22.51-.23,6.69,15.92,23.7,30,29.26,43.32,3.96,9.49.36,16.15-6.23,16.15-15.2,0-23.55-22.31-23.55-47.57v-11.67ZM148.23,221.21c-.15-.15-.19-.25-.3-.37,5.78-4.5,12.64-13.03,12.64-25.04,0-35.57-44.62-49.02-44.62-88.27,0-11.87,4.83-19.32,6.58-21.62h14.38c-1.49,2.6-4.33,9.25-4.33,19.1,0,35.86,41.76,46.51,41.76,79.28,0,19.24-16.26,33.44-26.12,36.94Z"/><path class="cls-10" d="M78.1,77.68c-.07,0-.13,0-.18,0,.03,0,.06,0,.09,0,.03,0,.06,0,.09,0Z"/><path class="cls-10" d="M184.18,77.68c-6.43,0-11.66,1.32-16.42,4.95-1.12.86-9.35,7.52-9.35,18.42,0,13.24,8.73,23.13,18.26,32.67,7.38,7.38,10.97,12.08,12.48,14.64l.95-.27v-62.19h3.77c0-.16,0-8.47,0-8.22h-9.7ZM181.25,126.73c-.07.02-.3.13-.41.16-3.96-5.27-13.87-14.49-13.87-25.94,0-6.61,4.47-12.6,9.18-14.25,1.42-.49,2.77-.54,4.25-.54.54,0,.3,0,.86,0v40.57Z"/><path class="cls-1" d="M218.1,116.07l3.1-.21c.11.37.16.8.27,1.12.96,3.16,3.58,5.83,7.22,5.83,3.32,0,6.79-2.14,6.79-6.21,0-4.39-3.96-6.47-9.2-8.61-4.76-1.98-8.88-5.19-8.88-10.65,0-6.21,5.51-9.74,11.93-9.74,2.78,0,6.05.64,8.83,1.76.32.11.7.27,1.02.38l-.7,6.79-3.16-.16c0-.32-.11-.7-.16-1.02-.7-2.57-3.05-4.39-6.31-4.39s-5.78,1.87-5.78,5.14c0,2.89,2.03,4.49,7.06,6.53,5.67,2.3,11.56,6.47,11.56,13.05s-6.26,10.65-13.32,10.65c-3.69,0-6.74-1.23-9.95-2.83l-.32-7.44Z"/><path class="cls-1" d="M259.56,123.62c-1.82,1.66-3.96,2.73-6.58,2.73-4.71,0-5.88-3.64-5.88-7.7v-16.26h-2.62v-3.75c2.78,0,3.85-2.03,3.96-4.39l.11-3.05h4.55v7.44h6.26v1.34c0,1.66-1.23,2.41-2.78,2.41h-3.48v16.75c0,1.98.8,3.69,2.73,3.69,1.07,0,2.09-.59,2.83-1.07l.91,1.87Z"/><path class="cls-1" d="M283.82,121.26c-2.19,3.32-6.15,5.08-10.06,5.08-8.61,0-13.32-7.12-13.32-15.03,0-7.17,5.62-13.27,12.95-13.27,4.65,0,9.47,2.25,10.59,6.58.27.8.43,1.66.43,2.62,0,4.82-4.17,6.69-9.04,6.69h-8.61c.21,4.39,3.16,8.51,7.7,8.77,3.64,0,5.72-.86,8.4-3.16l.96,1.71ZM270.07,110.4c4.25,0,8.67-.01,8.67-3.91,0-2.62-2.03-5.03-5.03-5.03-4.6,0-6.95,4.87-6.95,8.93h3.32Z"/><path class="cls-1" d="M289.39,89.54c0-1.12-1.02-1.23-1.82-1.23h-.48v-2.41h4.28c3.32,0,4.01,1.66,4.01,4.6v30.28c0,1.34.38,1.71,1.45,2.25v2.67h-8.93v-2.67c1.07-.54,1.5-.91,1.5-2.25v-31.24Z"/><path class="cls-1" d="M302.65,89.54c0-1.12-1.02-1.23-1.82-1.23h-.48v-2.41h4.28c3.32,0,4.01,1.66,4.01,4.6v30.28c0,1.34.38,1.71,1.45,2.25v2.67h-8.93v-2.67c1.07-.54,1.5-.91,1.5-2.25v-31.24Z"/><path class="cls-1" d="M336.4,121.26c-2.19,3.32-6.15,5.08-10.06,5.08-8.61,0-13.32-7.12-13.32-15.03,0-7.17,5.62-13.27,12.95-13.27,4.65,0,9.47,2.25,10.59,6.58.27.8.43,1.66.43,2.62,0,4.82-4.17,6.69-9.04,6.69h-8.61c.21,4.39,3.16,8.51,7.7,8.77,3.64,0,5.72-.86,8.4-3.16l.96,1.71ZM322.65,110.4c4.25,0,8.67-.01,8.67-3.91,0-2.62-2.03-5.03-5.03-5.03-4.6,0-6.96,4.87-6.96,8.93h3.32Z"/><path class="cls-1" d="M340.77,125.7v-2.73c.37,0,.7-.11.91-.32.48-.37.59-1.23.59-1.87v-18.88c0-.75-.43-1.12-1.07-1.23-.27-.11-.59-.11-.91-.11v-2.35h4.01c3.05,0,3.69,1.66,3.75,3.53,1.98-2.41,4.6-3.48,7.65-3.48,5.94,0,8.51,4.07,8.51,9.31v13.21c0,.64.05,1.39.59,1.87.21.21.48.32.91.32v2.73h-8.99v-2.73c1.34,0,1.5-1.07,1.5-2.19v-13.37c0-2.67-1.34-5.51-4.39-5.51-2.73,0-4.92,2.14-5.72,4.65v14.23c0,.43,0,.96.21,1.39.05.16.16.32.32.48.27.21.54.32.96.32v2.73h-8.83Z"/><path class="cls-1" d="M366.96,85.89h4.33c3.42,0,4.01,1.65,4.01,4.44v10.22c1.5-1.77,4.12-2.51,6.53-2.51,7.81,0,11.88,7.28,11.88,14.23,0,7.86-4.65,14.07-13.48,14.07-5.94,0-10.75-2.83-10.75-9.04v-27.77c0-.75-.53-1.02-1.07-1.12-.32-.11-.64-.11-.96-.11h-.48v-2.41ZM375.3,117.52c0,3.37,1.55,5.51,4.71,5.51,5.67,0,7.22-6.74,7.22-11.29,0-4.12-1.45-9.84-6.53-9.84-2.03,0-4.44,1.18-5.4,3.05v12.57Z"/><path class="cls-1" d="M409.96,98.05c7.86,0,13.37,6.47,13.37,14.02s-5.51,14.28-13.37,14.28-13.48-6.9-13.48-14.44,5.72-13.86,13.48-13.86ZM409.9,122.98c5.56,0,6.79-6.63,6.79-10.75,0-4.44-1.44-10.81-7.01-10.81s-6.74,6.1-6.74,10.43c0,4.01,1.18,11.13,6.95,11.13Z"/><path class="cls-1" d="M426.32,118.48h2.94c.8,3,3.05,4.87,6.21,4.87,2.46,0,4.65-1.18,4.65-3.48,0-1.55-1.02-2.51-2.3-3.26-.86-.48-1.77-.91-2.67-1.34-4.17-1.76-9.47-4.07-9.47-9.36,0-4.71,4.12-7.86,10.22-7.86,2.46,0,5.67.48,7.86,1.39l.32.11v5.94h-3.1c-.75-2.67-2.73-4.23-5.56-4.23s-4.28,1.66-4.28,3.1c0,2.14,2.94,3.8,5.94,5.19.64.32,1.28.59,1.93.91,3.58,1.66,6.9,3.37,6.9,7.92,0,6.95-7.65,7.97-10.81,7.97s-5.78-.86-8.45-2.19l-.32-.16v-5.51Z"/><path class="cls-1" d="M471.78,120.94v.05c-2.41,3-5.83,5.35-9.84,5.35-8.56,0-13.43-6.21-13.43-14.02s5.03-14.28,13.43-14.28c3.26,0,5.56.43,8.29,1.71.32.11.64.27,1.02.43v5.3h-3.05c-.16-.37-.27-.75-.48-1.07-.96-1.98-2.73-3.26-5.19-3.26-5.62,0-7.49,6.37-7.49,10.97s2.03,10.54,7.92,10.54c2.78,0,5.03-1.28,6.69-3.26.32-.32.59-.7.8-1.07l1.34,2.62Z"/><path class="cls-1" d="M473.93,125.7v-2.67l.27-.11c.48-.27,1.23-.7,1.23-2.14v-31.24c0-1.07-1.18-1.23-2.03-1.23h-.48v-2.41h4.49c3.91,0,4.14,2.23,4.15,5.35,0,2.46.03,9.84.03,9.84,1.77-2.09,3.69-2.89,6.26-2.89,5.88,0,9.31,4.07,9.31,9.04v13.54c0,1.28.43,1.71,1.5,2.25v2.67h-8.99v-2.67c1.02-.38,1.6-1.12,1.6-2.25v-13.37c0-3-1.82-5.4-4.39-5.62-2.67,0-4.65,1.55-5.62,3.96v15.03c0,.96.38,1.5,1.12,1.93.16.11.43.21.64.32v2.67h-9.09Z"/><path class="cls-1" d="M226.23,160.54c.85,0,1.56-.17,2.14-.52.58-.35,1.05-.8,1.4-1.35s.61-1.19.75-1.91c.15-.72.22-1.46.22-2.22v-9.41h3.56v9.41c0,1.27-.15,2.45-.46,3.56-.3,1.11-.78,2.08-1.43,2.91s-1.49,1.49-2.51,1.98c-1.02.49-2.24.73-3.67.73s-2.73-.26-3.76-.77c-1.03-.51-1.87-1.19-2.51-2.03s-1.11-1.82-1.39-2.92c-.29-1.11-.43-2.26-.43-3.46v-9.41h3.59v9.41c0,.78.07,1.53.22,2.25.15.72.4,1.36.75,1.91.35.55.82,1,1.39,1.34.57.34,1.27.51,2.11.51Z"/><path class="cls-1" d="M245.08,151.75v11.83h-3.59v-18.46h2.78l9.62,12.12v-12.09h3.59v18.43h-2.91l-9.49-11.83Z"/><path class="cls-1" d="M264.89,163.58v-18.46h3.59v18.46h-3.59Z"/><path class="cls-1" d="M277.79,145.12l4.99,13.96,4.94-13.96h3.77l-7.2,18.46h-3.02l-7.25-18.46h3.77Z"/><path class="cls-1" d="M309.84,160.43v3.15h-12.82v-18.46h12.58v3.15h-9v4.45h7.77v2.91h-7.77v4.81h9.23Z"/><path class="cls-1" d="M316.21,163.58v-18.46h8.16c.85,0,1.63.18,2.35.53s1.34.82,1.86,1.4c.52.58.93,1.24,1.22,1.98.29.74.44,1.48.44,2.22,0,1.2-.3,2.28-.9,3.26-.6.98-1.41,1.69-2.43,2.12l4.21,6.94h-4.03l-3.77-6.19h-3.54v6.19h-3.59ZM319.8,154.25h4.5c.33,0,.64-.08.92-.23.29-.16.53-.37.74-.64.21-.27.37-.58.49-.95.12-.36.18-.75.18-1.17s-.07-.83-.21-1.2c-.14-.36-.33-.68-.56-.95-.23-.27-.5-.48-.81-.62s-.61-.22-.92-.22h-4.34v5.98Z"/><path class="cls-1" d="M348.06,149.96c-.12-.12-.34-.29-.66-.49s-.71-.41-1.17-.61-.96-.37-1.49-.51c-.54-.14-1.08-.21-1.64-.21-.99,0-1.72.18-2.21.55-.49.36-.73.88-.73,1.53,0,.38.09.7.27.95.18.25.45.47.79.66s.78.36,1.31.52c.53.16,1.14.32,1.83.49.9.24,1.72.5,2.46.78s1.36.62,1.87,1.04c.51.42.9.91,1.18,1.5.28.58.42,1.3.42,2.14,0,.99-.19,1.83-.56,2.54s-.88,1.27-1.51,1.7c-.63.43-1.36.75-2.18.95-.82.2-1.69.3-2.59.3-1.39,0-2.76-.21-4.11-.62s-2.57-1-3.64-1.77l1.59-3.09c.16.16.44.36.84.61s.89.5,1.44.75c.55.25,1.17.46,1.85.64.68.17,1.37.26,2.08.26,1.98,0,2.96-.63,2.96-1.9,0-.4-.11-.74-.34-1.01s-.55-.52-.96-.73-.92-.4-1.51-.57c-.59-.17-1.25-.36-1.98-.57-.88-.24-1.65-.51-2.3-.79s-1.19-.62-1.62-1.01c-.43-.39-.76-.84-.97-1.35-.22-.51-.33-1.12-.33-1.83,0-.94.17-1.77.52-2.5.35-.73.83-1.33,1.44-1.82.62-.48,1.33-.85,2.15-1.1.81-.25,1.69-.38,2.62-.38,1.3,0,2.5.2,3.59.61,1.09.41,2.04.89,2.86,1.44l-1.59,2.91Z"/><path class="cls-1" d="M356.57,163.58v-18.46h3.59v18.46h-3.59Z"/><path class="cls-1" d="M381.37,148.27h-5.9v15.31h-3.56v-15.31h-5.9v-3.15h15.37v3.15Z"/><path class="cls-1" d="M389.3,145.12l4.55,8.89,4.63-8.89h3.87l-6.71,12.01v6.45h-3.56v-6.5l-6.68-11.96h3.9Z"/><path class="cls-1" d="M218.17,191.75v-18.46h3.59v18.46h-3.59Z"/><path class="cls-1" d="M231.25,173.29l4.55,8.89,4.63-8.89h3.87l-6.71,12.01v6.45h-3.56v-6.5l-6.68-11.96h3.9Z"/><path class="cls-1" d="M257.69,188.7c.85,0,1.56-.17,2.14-.52.58-.35,1.05-.8,1.4-1.35.35-.55.61-1.19.75-1.91.15-.72.22-1.46.22-2.22v-9.41h3.56v9.41c0,1.27-.15,2.45-.46,3.56-.3,1.11-.78,2.08-1.43,2.91-.65.83-1.49,1.49-2.51,1.98-1.02.49-2.25.73-3.67.73s-2.73-.26-3.76-.77c-1.03-.51-1.87-1.19-2.51-2.03-.64-.84-1.11-1.82-1.39-2.92s-.43-2.26-.43-3.46v-9.41h3.59v9.41c0,.78.07,1.53.22,2.25.15.72.4,1.36.75,1.91s.82,1,1.39,1.34c.57.34,1.27.51,2.11.51Z"/><path class="cls-1" d="M276.54,179.92v11.83h-3.59v-18.46h2.78l9.62,12.12v-12.09h3.59v18.43h-2.91l-9.49-11.83Z"/><path class="cls-1" d="M296.35,191.75v-18.46h3.59v18.46h-3.59Z"/><path class="cls-1" d="M309.25,173.29l4.99,13.96,4.94-13.96h3.77l-7.2,18.46h-3.02l-7.25-18.46h3.77Z"/><path class="cls-1" d="M341.3,188.6v3.15h-12.82v-18.46h12.58v3.15h-9v4.45h7.77v2.91h-7.77v4.81h9.23Z"/><path class="cls-1" d="M358.28,178.12c-.12-.12-.34-.29-.66-.49-.32-.21-.71-.41-1.17-.61-.46-.2-.96-.37-1.5-.51-.54-.14-1.08-.21-1.64-.21-.99,0-1.73.18-2.21.55-.48.36-.73.88-.73,1.53,0,.38.09.7.27.95.18.25.45.47.79.66.35.19.79.36,1.31.52.53.16,1.14.32,1.83.49.9.24,1.72.5,2.46.78s1.36.62,1.87,1.04c.51.42.91.91,1.18,1.5s.42,1.3.42,2.14c0,.99-.19,1.83-.56,2.54s-.88,1.27-1.51,1.7c-.63.43-1.36.75-2.18.95-.82.2-1.69.3-2.59.3-1.39,0-2.76-.21-4.11-.62-1.35-.42-2.57-1-3.64-1.77l1.59-3.09c.16.16.44.36.85.61.41.25.89.5,1.44.75.55.25,1.17.46,1.85.64.68.17,1.37.26,2.08.26,1.98,0,2.96-.63,2.96-1.9,0-.4-.11-.74-.34-1.01-.22-.28-.54-.52-.96-.73s-.92-.4-1.51-.57c-.59-.17-1.25-.36-1.98-.57-.88-.24-1.65-.51-2.3-.79-.65-.29-1.19-.62-1.62-1.01-.43-.39-.76-.84-.98-1.35-.22-.51-.33-1.12-.33-1.83,0-.94.17-1.77.52-2.5.35-.73.83-1.33,1.44-1.82.62-.48,1.33-.85,2.15-1.1.81-.25,1.69-.38,2.63-.38,1.3,0,2.5.2,3.59.61s2.04.89,2.86,1.44l-1.59,2.91Z"/><path class="cls-1" d="M366.78,191.75v-18.46h3.59v18.46h-3.59Z"/><path class="cls-1" d="M391.59,176.43h-5.9v15.31h-3.56v-15.31h-5.9v-3.15h15.37v3.15Z"/><path class="cls-1" d="M412.96,173.29v18.46h-3.56v-7.88h-8.37v7.88h-3.59v-18.46h3.59v7.46h8.37v-7.46h3.56Z"/><path class="cls-1" d="M420.37,191.75v-18.46h3.59v18.46h-3.59Z"/><path class="cls-1" d="M226.23,216.87c.85,0,1.56-.17,2.15-.52s1.05-.8,1.4-1.35.61-1.19.75-1.91c.15-.72.22-1.46.22-2.22v-9.41h3.56v9.41c0,1.27-.15,2.45-.46,3.56-.3,1.11-.78,2.08-1.43,2.91s-1.49,1.49-2.51,1.98-2.25.73-3.67.73-2.73-.26-3.76-.77c-1.03-.51-1.87-1.19-2.51-2.03-.64-.84-1.1-1.82-1.39-2.92-.29-1.11-.43-2.26-.43-3.46v-9.41h3.59v9.41c0,.78.07,1.53.22,2.25.15.72.4,1.36.75,1.91.35.55.82,1,1.39,1.34s1.27.51,2.11.51Z"/><path class="cls-1" d="M245.08,208.08v11.83h-3.59v-18.46h2.78l9.62,12.12v-12.09h3.59v18.43h-2.91l-9.49-11.83Z"/><path class="cls-1" d="M264.89,219.91v-18.46h3.59v18.46h-3.59Z"/><path class="cls-1" d="M277.79,201.45l4.99,13.96,4.94-13.96h3.77l-7.2,18.46h-3.02l-7.25-18.46h3.77Z"/><path class="cls-1" d="M309.84,216.76v3.15h-12.82v-18.46h12.58v3.15h-9v4.45h7.77v2.91h-7.77v4.81h9.23Z"/><path class="cls-1" d="M316.21,219.91v-18.46h8.16c.85,0,1.63.18,2.35.53.72.36,1.34.82,1.86,1.4.52.58.93,1.24,1.22,1.98.29.74.44,1.48.44,2.22,0,1.2-.3,2.28-.9,3.26s-1.41,1.69-2.43,2.12l4.21,6.94h-4.03l-3.77-6.19h-3.54v6.19h-3.59ZM319.8,210.57h4.5c.33,0,.64-.08.92-.23.29-.16.53-.37.74-.64s.37-.58.49-.95c.12-.36.18-.75.18-1.17s-.07-.83-.21-1.2c-.14-.36-.32-.68-.56-.95s-.5-.48-.81-.62c-.3-.15-.61-.22-.92-.22h-4.34v5.98Z"/><path class="cls-1" d="M348.06,206.28c-.12-.12-.34-.29-.66-.49-.32-.21-.71-.41-1.17-.61s-.96-.37-1.49-.51c-.54-.14-1.08-.21-1.64-.21-.99,0-1.72.18-2.21.55-.49.36-.73.88-.73,1.53,0,.38.09.7.27.95.18.25.45.47.79.66.35.19.78.36,1.31.52.53.16,1.14.32,1.83.49.9.24,1.72.5,2.46.78.74.28,1.36.62,1.87,1.04.51.42.91.91,1.18,1.5.28.58.42,1.3.42,2.14,0,.99-.19,1.83-.56,2.54-.37.7-.88,1.27-1.51,1.7-.63.43-1.36.75-2.18.95s-1.69.3-2.59.3c-1.39,0-2.76-.21-4.11-.62-1.35-.42-2.56-1-3.64-1.77l1.59-3.09c.16.16.44.36.84.61.41.25.89.5,1.44.75.55.25,1.17.46,1.85.64.68.17,1.37.26,2.08.26,1.98,0,2.96-.63,2.96-1.9,0-.4-.11-.74-.34-1.01-.23-.28-.55-.52-.96-.73s-.92-.4-1.51-.57c-.59-.17-1.25-.36-1.98-.57-.88-.24-1.65-.51-2.3-.79-.65-.29-1.19-.62-1.62-1.01-.43-.39-.76-.84-.97-1.35-.22-.51-.32-1.12-.32-1.83,0-.94.17-1.77.52-2.5.35-.73.83-1.33,1.44-1.82.62-.48,1.33-.85,2.14-1.1s1.69-.38,2.63-.38c1.3,0,2.5.2,3.59.61,1.09.41,2.04.89,2.86,1.44l-1.59,2.91Z"/><path class="cls-1" d="M356.57,219.91v-18.46h3.59v18.46h-3.59Z"/><path class="cls-1" d="M381.37,204.59h-5.9v15.31h-3.56v-15.31h-5.9v-3.15h15.37v3.15Z"/><path class="cls-1" d="M400.04,216.76v3.15h-12.82v-18.46h12.58v3.15h-9v4.45h7.77v2.91h-7.77v4.81h9.23Z"/><path class="cls-1" d="M406.41,219.91v-18.46h3.59v18.46h-3.59Z"/><path class="cls-1" d="M431.21,204.59h-5.9v15.31h-3.56v-15.31h-5.9v-3.15h15.37v3.15Z"/></svg>