<?xml version="1.0" encoding="UTF-8"?><svg id="artwork" xmlns="http://www.w3.org/2000/svg" viewBox="0 0 866.12 310.54"><defs><style>.cls-1{letter-spacing:-.01em;}.cls-2{fill:#61223b;}.cls-3{letter-spacing:.01em;}.cls-4{letter-spacing:-.02em;}.cls-5{letter-spacing:0em;}.cls-6{fill:#b6b6b6;}.cls-7{letter-spacing:0em;}.cls-8{fill:#caa258;}.cls-9{letter-spacing:0em;}.cls-10{letter-spacing:.01em;}.cls-11{fill:#72253d;}.cls-12{fill:#caa258;}.cls-13{font-family:Raleway-SemiBold, Raleway;font-size:15px;font-weight:600;}</style></defs><text class="cls-13" transform="translate(0 -27.1)"><tspan class="cls-11"><tspan class="cls-3" x="0" y="0">SU Corpo</tspan><tspan class="cls-5" x="69.18" y="0">r</tspan><tspan class="cls-10" x="74.89" y="0">a</tspan><tspan class="cls-9" x="83.5" y="0">t</tspan><tspan class="cls-3" x="89.02" y="0">e</tspan></tspan><tspan class="cls-6"><tspan class="cls-5" x="0" y="18">H</tspan><tspan class="cls-3" x="11.25" y="18">ori</tspan><tspan x="30.15" y="18">z</tspan><tspan class="cls-3" x="37.54" y="18">o</tspan><tspan class="cls-7" x="46.78" y="18">n</tspan><tspan class="cls-3" x="55.87" y="18">ta</tspan><tspan class="cls-4" x="70.26" y="18">l</tspan><tspan class="cls-1" x="74.52" y="18"> </tspan><tspan class="cls-3" x="78.03" y="18">with slogan</tspan></tspan></text><rect class="cls-8" x="526.25" y="85.89" width="2" height="134.07"/><path class="cls-8" d="M557.36,131.85v-11.33h-1.78v-1.72h1.78v-.28c0-1.62.36-2.88,1.07-3.8.72-.92,1.69-1.38,2.93-1.38.52,0,1.02.07,1.52.21s.95.34,1.35.59l-.55,1.62c-.23-.17-.52-.3-.86-.4-.34-.1-.68-.15-1.01-.15-.73,0-1.29.28-1.67.83s-.58,1.35-.58,2.4v.35h3.47v1.72h-3.47v11.33h-2.2Z"/><path class="cls-8" d="M570.89,132.1c-.98,0-1.88-.18-2.69-.55-.81-.37-1.5-.86-2.08-1.48-.57-.62-1.02-1.33-1.34-2.15s-.47-1.67-.47-2.58.16-1.78.49-2.6c.32-.82.77-1.53,1.35-2.15.57-.62,1.27-1.11,2.07-1.47.81-.37,1.7-.55,2.66-.55s1.86.18,2.67.55c.82.37,1.51.86,2.09,1.47.57.62,1.03,1.33,1.35,2.15.33.82.49,1.68.49,2.6s-.16,1.76-.48,2.58c-.32.82-.77,1.53-1.35,2.15-.58.62-1.28,1.11-2.09,1.48-.81.37-1.7.55-2.69.55ZM566.56,125.37c0,.68.11,1.32.34,1.9.22.58.53,1.09.92,1.53s.85.77,1.38,1.02,1.09.38,1.69.38,1.16-.12,1.69-.38.99-.6,1.39-1.04.71-.96.94-1.55.34-1.23.34-1.91-.11-1.29-.34-1.89-.54-1.11-.94-1.55c-.4-.44-.86-.79-1.39-1.04s-1.09-.38-1.69-.38-1.16.13-1.69.39-.98.61-1.38,1.05-.7.96-.92,1.55c-.22.59-.34,1.23-.34,1.91Z"/><path class="cls-8" d="M587.31,120.72c-1.1.03-2.07.32-2.91.85-.84.53-1.44,1.28-1.79,2.23v8.05h-2.2v-13.05h2.05v3.02c.45-.9,1.04-1.63,1.78-2.19.73-.56,1.52-.87,2.35-.94h.42c.12,0,.22,0,.3.03v2Z"/><path class="cls-8" d="M606.09,118.8h2.12l-5.55,13.05h-1.82l-2.62-6.38-2.6,6.38h-1.83l-5.55-13.05h2.1l4.5,10.88,2.2-5.42-2.25-5.43h1.83l1.6,4.18,1.6-4.18h1.82l-2.22,5.43,2.2,5.42,4.48-10.88Z"/><path class="cls-8" d="M613.54,132.1c-.62,0-1.19-.1-1.72-.31s-1-.5-1.39-.86c-.39-.37-.7-.8-.93-1.29-.22-.49-.34-1.03-.34-1.61s.13-1.15.4-1.64c.27-.49.65-.91,1.14-1.26.49-.35,1.08-.62,1.75-.83s1.41-.3,2.21-.3c.63,0,1.28.06,1.93.17s1.22.27,1.72.47v-1.05c0-1.07-.3-1.9-.9-2.51-.6-.61-1.45-.91-2.55-.91-1.32,0-2.7.51-4.15,1.52l-.72-1.42c1.68-1.13,3.38-1.7,5.07-1.7s3.05.46,4.01,1.38c.96.92,1.44,2.21,1.44,3.88v5.33c0,.52.23.78.7.8v1.9c-.23.03-.43.06-.58.08s-.31.02-.48.02c-.43,0-.78-.13-1.04-.39-.26-.26-.41-.57-.46-.94l-.05-.93c-.58.78-1.32,1.38-2.21,1.79-.89.41-1.85.61-2.86.61ZM614.11,130.45c.78,0,1.51-.15,2.19-.44.67-.29,1.19-.68,1.54-1.16.32-.32.47-.64.47-.97v-1.93c-1.07-.42-2.17-.62-3.32-.62s-2,.23-2.69.7c-.69.47-1.04,1.08-1.04,1.83,0,.37.07.71.21,1.03.14.32.34.59.6.82.26.23.56.42.91.55.35.13.72.2,1.12.2Z"/><path class="cls-8" d="M631.19,120.72c-1.1.03-2.07.32-2.91.85-.84.53-1.44,1.28-1.79,2.23v8.05h-2.2v-13.05h2.05v3.02c.45-.9,1.04-1.63,1.77-2.19.73-.56,1.52-.87,2.35-.94h.42c.12,0,.22,0,.3.03v2Z"/><path class="cls-8" d="M638.76,132.1c-.9,0-1.73-.18-2.5-.55-.77-.37-1.42-.86-1.97-1.48-.55-.62-.98-1.33-1.29-2.15s-.46-1.67-.46-2.58.15-1.79.44-2.61.7-1.55,1.22-2.16c.53-.62,1.15-1.1,1.88-1.46.73-.36,1.52-.54,2.39-.54,1.05,0,1.99.28,2.81.83.82.55,1.48,1.22,1.96,2v-7.8h2.2v15.55c0,.52.23.78.7.8v1.9c-.23.03-.42.06-.56.08-.14.02-.28.02-.41.02-.43,0-.81-.15-1.14-.44-.33-.29-.49-.63-.49-1.01v-1.1c-.52.85-1.2,1.51-2.06,1.99-.86.48-1.76.71-2.71.71ZM639.29,130.2c.4,0,.81-.07,1.24-.22.42-.15.82-.36,1.2-.62s.7-.58.97-.94c.28-.36.46-.74.54-1.14v-3.75c-.15-.42-.38-.81-.67-1.19-.3-.38-.64-.7-1.01-.97-.38-.28-.77-.49-1.2-.65-.42-.16-.85-.24-1.26-.24-.65,0-1.24.14-1.76.41-.52.28-.97.64-1.35,1.1s-.66.98-.86,1.58-.3,1.2-.3,1.81c0,.65.12,1.27.35,1.86s.55,1.1.95,1.54c.4.43.87.78,1.41,1.04.54.26,1.13.39,1.76.39Z"/><path class="cls-8" d="M662.69,131.2c-.13.07-.31.15-.53.24s-.46.18-.74.27c-.28.09-.58.17-.9.23-.33.06-.66.09-1.01.09-.8,0-1.49-.22-2.07-.66-.58-.44-.88-1.13-.88-2.06v-8.78h-1.78v-1.72h1.78v-4.35h2.2v4.35h2.93v1.72h-2.93v8.1c.03.48.19.83.48,1.05.28.22.62.33,1,.33.43,0,.83-.07,1.19-.21s.6-.25.74-.34l.53,1.75Z"/><path class="cls-8" d="M670.51,132.1c-.98,0-1.88-.18-2.69-.55s-1.5-.86-2.07-1.48c-.58-.62-1.02-1.33-1.34-2.15s-.47-1.67-.47-2.58.16-1.78.49-2.6.77-1.53,1.35-2.15c.58-.62,1.27-1.11,2.08-1.47.81-.37,1.7-.55,2.66-.55s1.86.18,2.68.55c.82.37,1.51.86,2.09,1.47.58.62,1.03,1.33,1.35,2.15.32.82.49,1.68.49,2.6s-.16,1.76-.48,2.58-.77,1.53-1.35,2.15c-.58.62-1.28,1.11-2.09,1.48s-1.7.55-2.69.55ZM666.19,125.37c0,.68.11,1.32.34,1.9.23.58.53,1.09.92,1.53s.85.77,1.38,1.02c.53.25,1.09.38,1.69.38s1.16-.12,1.69-.38c.53-.25.99-.6,1.39-1.04.4-.44.71-.96.94-1.55.23-.59.34-1.23.34-1.91s-.11-1.29-.34-1.89c-.22-.59-.54-1.11-.94-1.55-.4-.44-.86-.79-1.39-1.04-.52-.25-1.09-.38-1.69-.38s-1.16.13-1.69.39c-.52.26-.98.61-1.38,1.05s-.7.96-.92,1.55c-.22.59-.34,1.23-.34,1.91Z"/><path class="cls-8" d="M685.24,132c-.88,0-1.7-.18-2.44-.55-.74-.37-1.38-.86-1.91-1.47-.53-.62-.95-1.33-1.24-2.12-.29-.8-.44-1.63-.44-2.5,0-.92.14-1.79.44-2.61.29-.83.7-1.55,1.24-2.16.53-.62,1.17-1.1,1.91-1.46s1.56-.54,2.46-.54c1.1,0,2.05.27,2.85.8s1.48,1.21,2.02,2.02v-2.6h1.95v12.9c0,.93-.18,1.75-.53,2.46-.35.71-.83,1.3-1.43,1.79-.6.48-1.3.85-2.11,1.1-.81.25-1.67.38-2.59.38-1.48,0-2.69-.25-3.61-.76-.92-.51-1.7-1.21-2.31-2.11l1.28-1.12c.52.77,1.18,1.34,2,1.72s1.7.58,2.65.58c.6,0,1.17-.08,1.71-.25.54-.17,1.01-.42,1.41-.75.4-.33.72-.75.96-1.25.24-.5.36-1.09.36-1.78v-2.3c-.25.4-.54.76-.89,1.09s-.71.6-1.11.83c-.4.22-.82.4-1.27.51-.45.12-.91.18-1.38.18ZM685.91,130.2c.47,0,.92-.08,1.35-.25.43-.17.83-.39,1.2-.66.37-.28.67-.59.92-.94s.42-.71.5-1.08v-3.75c-.18-.45-.42-.86-.71-1.22s-.62-.69-.99-.96c-.37-.27-.76-.49-1.19-.64-.43-.15-.85-.22-1.29-.22-.67,0-1.26.14-1.79.42-.52.28-.97.66-1.34,1.12-.37.47-.65,1-.85,1.59s-.3,1.19-.3,1.79c0,.65.12,1.27.35,1.85.23.58.55,1.09.95,1.52.4.43.87.78,1.41,1.04.54.26,1.13.39,1.76.39Z"/><path class="cls-8" d="M701.66,132.1c-.98,0-1.88-.18-2.7-.54-.82-.36-1.52-.85-2.1-1.46-.58-.62-1.04-1.34-1.36-2.16-.33-.83-.49-1.7-.49-2.61s.16-1.78.49-2.6c.32-.82.78-1.53,1.38-2.15.59-.62,1.29-1.1,2.11-1.46s1.72-.54,2.7-.54,1.88.18,2.69.55c.81.37,1.5.85,2.06,1.46.57.61,1,1.32,1.31,2.12.31.81.46,1.65.46,2.51,0,.18,0,.35-.01.5s-.02.27-.04.35h-10.83c.05.65.2,1.24.45,1.78s.57.99.97,1.38c.4.38.85.68,1.36.9.51.22,1.04.32,1.61.32.4,0,.79-.05,1.18-.16.38-.11.74-.25,1.07-.44.33-.18.63-.41.89-.67.26-.27.45-.57.59-.9l1.9.53c-.22.48-.51.92-.89,1.33-.38.4-.81.75-1.3,1.04-.49.29-1.04.52-1.64.69s-1.22.25-1.88.25ZM706.14,124.45c-.05-.62-.2-1.19-.46-1.71-.26-.53-.58-.97-.97-1.34-.39-.37-.85-.65-1.36-.86-.52-.21-1.07-.31-1.65-.31s-1.13.1-1.65.31c-.52.21-.97.5-1.36.88-.39.38-.71.82-.95,1.34-.24.52-.39,1.08-.44,1.7h8.85Z"/><path class="cls-8" d="M717.54,131.2c-.13.07-.31.15-.53.24s-.46.18-.74.27c-.28.09-.58.17-.9.23-.33.06-.66.09-1.01.09-.8,0-1.49-.22-2.08-.66s-.88-1.13-.88-2.06v-8.78h-1.78v-1.72h1.78v-4.35h2.2v4.35h2.92v1.72h-2.92v8.1c.03.48.19.83.48,1.05.28.22.62.33,1,.33.43,0,.83-.07,1.19-.21.36-.14.6-.25.74-.34l.53,1.75Z"/><path class="cls-8" d="M731.16,131.85h-2.2v-7.3c0-1.35-.23-2.35-.7-3.01s-1.15-.99-2.05-.99c-.43,0-.87.09-1.3.26-.43.17-.84.41-1.21.71s-.71.66-1,1.08c-.29.42-.51.88-.66,1.38v7.88h-2.2v-18.25h2.2v8c.52-.95,1.22-1.69,2.1-2.22s1.85-.8,2.9-.8c.77,0,1.42.14,1.95.43s.96.67,1.28,1.15.55,1.06.69,1.74c.14.68.21,1.4.21,2.16v7.8Z"/><path class="cls-8" d="M740.61,132.1c-.98,0-1.88-.18-2.7-.54-.82-.36-1.52-.85-2.1-1.46-.58-.62-1.04-1.34-1.36-2.16-.32-.83-.49-1.7-.49-2.61s.16-1.78.49-2.6c.33-.82.78-1.53,1.38-2.15.59-.62,1.3-1.1,2.11-1.46.82-.36,1.72-.54,2.7-.54s1.88.18,2.69.55c.81.37,1.5.85,2.06,1.46s1,1.32,1.31,2.12c.31.81.46,1.65.46,2.51,0,.18,0,.35-.01.5s-.02.27-.04.35h-10.82c.05.65.2,1.24.45,1.78s.58.99.98,1.38c.4.38.85.68,1.36.9s1.05.32,1.61.32c.4,0,.79-.05,1.17-.16.38-.11.74-.25,1.08-.44.33-.18.63-.41.89-.67s.45-.57.59-.9l1.9.53c-.22.48-.51.92-.89,1.33-.38.4-.81.75-1.3,1.04-.49.29-1.04.52-1.64.69-.6.17-1.22.25-1.88.25ZM745.09,124.45c-.05-.62-.2-1.19-.46-1.71-.26-.53-.58-.97-.98-1.34-.39-.37-.85-.65-1.36-.86-.52-.21-1.07-.31-1.65-.31s-1.13.1-1.65.31c-.52.21-.97.5-1.36.88-.39.38-.71.82-.95,1.34-.24.52-.39,1.08-.44,1.7h8.85Z"/><path class="cls-8" d="M756.76,120.72c-1.1.03-2.07.32-2.91.85-.84.53-1.44,1.28-1.79,2.23v8.05h-2.2v-13.05h2.05v3.02c.45-.9,1.04-1.63,1.78-2.19.73-.56,1.52-.87,2.35-.94h.42c.12,0,.22,0,.3.03v2Z"/><path class="cls-8" d="M561.31,159.68c-1.05,0-2.08-.16-3.1-.49-1.02-.33-1.89-.8-2.62-1.41l.95-1.47c.77.58,1.53,1.02,2.3,1.31.77.29,1.57.44,2.42.44.95,0,1.71-.19,2.26-.56.56-.38.84-.9.84-1.59,0-.32-.08-.59-.23-.81-.15-.22-.38-.42-.67-.59-.3-.17-.68-.32-1.15-.45-.47-.13-1.01-.28-1.62-.42-.78-.2-1.46-.39-2.03-.58s-1.03-.4-1.4-.65c-.37-.25-.63-.55-.8-.9-.17-.35-.25-.78-.25-1.3,0-.65.13-1.23.39-1.74.26-.51.61-.93,1.06-1.27.45-.34.98-.6,1.59-.78.61-.17,1.26-.26,1.96-.26.98,0,1.9.16,2.75.48.85.32,1.57.73,2.15,1.25l-1,1.33c-.55-.48-1.17-.85-1.85-1.09-.68-.24-1.38-.36-2.1-.36-.8,0-1.48.17-2.04.51s-.84.89-.84,1.64c0,.3.05.55.16.75.11.2.29.38.54.53s.57.28.96.4c.39.12.86.24,1.41.38.87.2,1.62.4,2.26.61.64.21,1.17.45,1.6.74.43.28.74.62.95,1,.21.38.31.85.31,1.4,0,1.22-.47,2.18-1.4,2.9-.93.72-2.19,1.08-3.78,1.08Z"/><path class="cls-8" d="M575.04,159.68c-.98,0-1.88-.18-2.69-.55s-1.5-.86-2.08-1.48c-.58-.62-1.02-1.33-1.34-2.15-.32-.82-.48-1.67-.48-2.58s.16-1.78.49-2.6c.33-.82.78-1.53,1.35-2.15.58-.62,1.27-1.11,2.08-1.47.81-.37,1.7-.55,2.66-.55s1.86.18,2.67.55c.82.37,1.51.86,2.09,1.47.58.62,1.03,1.33,1.35,2.15s.49,1.68.49,2.6-.16,1.76-.47,2.58-.77,1.53-1.35,2.15c-.58.62-1.28,1.11-2.09,1.48s-1.71.55-2.69.55ZM570.71,152.96c0,.68.11,1.32.34,1.9.23.58.53,1.09.93,1.53.39.43.85.77,1.38,1.02s1.09.38,1.69.38,1.16-.12,1.69-.38.99-.6,1.39-1.04c.4-.44.71-.96.94-1.55.23-.59.34-1.23.34-1.91s-.11-1.29-.34-1.89c-.22-.59-.54-1.11-.94-1.55-.4-.44-.86-.79-1.39-1.04s-1.09-.38-1.69-.38-1.16.13-1.69.39-.98.61-1.38,1.05c-.39.44-.7.96-.93,1.55-.22.59-.34,1.23-.34,1.91Z"/><path class="cls-8" d="M595.89,159.43h-2.2v-7.3c0-1.4-.21-2.42-.64-3.05-.42-.63-1.07-.95-1.94-.95-.45,0-.9.09-1.35.26-.45.17-.88.41-1.27.71-.4.3-.75.66-1.05,1.08-.3.42-.53.88-.68,1.38v7.88h-2.2v-13.05h2v2.8c.52-.92,1.26-1.65,2.24-2.2.97-.55,2.04-.83,3.19-.83.75,0,1.38.14,1.88.41.5.27.9.66,1.2,1.15.3.49.51,1.07.64,1.74.12.67.19,1.39.19,2.17v7.8Z"/><path class="cls-8" d="M608.76,159.43l-4.5-6.38-2.5,2.35v4.03h-2.2v-18.25h2.2v12l6.7-6.78h2.42l-5.2,5.4,5.45,7.62h-2.38Z"/><path class="cls-8" d="M618.39,159.68c-.98,0-1.88-.18-2.7-.54-.82-.36-1.52-.85-2.1-1.46-.58-.62-1.04-1.34-1.36-2.16-.33-.83-.49-1.7-.49-2.61s.16-1.78.49-2.6c.32-.82.78-1.53,1.38-2.15.59-.62,1.29-1.1,2.11-1.46.82-.36,1.72-.54,2.7-.54s1.88.18,2.69.55c.81.37,1.5.85,2.06,1.46s1,1.32,1.31,2.12c.31.81.46,1.65.46,2.51,0,.18,0,.35-.01.5,0,.15-.02.27-.04.35h-10.82c.05.65.2,1.24.45,1.78s.58.99.97,1.38c.4.38.85.68,1.36.9.51.22,1.04.32,1.61.32.4,0,.79-.05,1.17-.16s.74-.25,1.08-.44.63-.41.89-.67c.26-.27.45-.57.59-.9l1.9.53c-.22.48-.51.92-.89,1.33-.38.4-.81.75-1.3,1.04-.49.29-1.04.52-1.64.69s-1.22.25-1.88.25ZM622.86,152.03c-.05-.62-.2-1.19-.46-1.71-.26-.53-.58-.97-.98-1.34-.39-.37-.85-.65-1.36-.86-.52-.21-1.07-.31-1.65-.31s-1.13.1-1.65.31c-.52.21-.97.5-1.36.88s-.71.82-.95,1.34-.39,1.08-.44,1.7h8.85Z"/><path class="cls-8" d="M638.79,159.68c-1.05,0-2.08-.16-3.1-.49s-1.89-.8-2.62-1.41l.95-1.47c.77.58,1.53,1.02,2.3,1.31.77.29,1.58.44,2.42.44.95,0,1.7-.19,2.26-.56.56-.38.84-.9.84-1.59,0-.32-.07-.59-.22-.81-.15-.22-.38-.42-.67-.59s-.68-.32-1.15-.45c-.47-.13-1.01-.28-1.62-.42-.78-.2-1.46-.39-2.03-.58s-1.03-.4-1.4-.65-.63-.55-.8-.9c-.17-.35-.25-.78-.25-1.3,0-.65.13-1.23.39-1.74.26-.51.61-.93,1.06-1.27.45-.34.98-.6,1.59-.78.61-.17,1.26-.26,1.96-.26.98,0,1.9.16,2.75.48s1.57.73,2.15,1.25l-1,1.33c-.55-.48-1.17-.85-1.85-1.09-.68-.24-1.38-.36-2.1-.36-.8,0-1.48.17-2.04.51-.56.34-.84.89-.84,1.64,0,.3.05.55.16.75.11.2.29.38.54.53s.57.28.96.4c.39.12.86.24,1.41.38.87.2,1.62.4,2.26.61.64.21,1.17.45,1.6.74.42.28.74.62.95,1,.21.38.31.85.31,1.4,0,1.22-.47,2.18-1.4,2.9-.93.72-2.19,1.08-3.77,1.08Z"/><path class="cls-8" d="M646.81,143.93v-2.75h2.2v2.75h-2.2ZM646.81,159.43v-13.05h2.2v13.05h-2.2Z"/><path class="cls-8" d="M653.41,162.98c.22.03.43.06.65.08s.38.03.5.03c.2,0,.38-.05.54-.14.16-.09.32-.27.48-.54.16-.27.34-.64.54-1.11.2-.47.45-1.1.75-1.86l-5.53-13.05h2.28l4.45,11.08,4.05-11.08h2.1l-6.35,16.47c-.23.58-.62,1.1-1.16,1.54-.54.44-1.29.66-2.24.66-.15,0-.3,0-.46-.03s-.35-.05-.59-.1v-1.95Z"/><path class="cls-8" d="M669.69,159.68c-.62,0-1.19-.1-1.73-.31s-1-.5-1.39-.86c-.39-.37-.7-.8-.93-1.29-.22-.49-.34-1.03-.34-1.61s.13-1.15.4-1.64c.27-.49.65-.91,1.14-1.26.49-.35,1.07-.62,1.75-.83.67-.2,1.41-.3,2.21-.3.63,0,1.27.06,1.92.17s1.22.27,1.72.47v-1.05c0-1.07-.3-1.9-.9-2.51s-1.45-.91-2.55-.91c-1.32,0-2.7.51-4.15,1.52l-.72-1.42c1.68-1.13,3.38-1.7,5.07-1.7s3.05.46,4.01,1.38c.96.92,1.44,2.21,1.44,3.88v5.33c0,.52.23.78.7.8v1.9c-.23.03-.42.06-.57.08-.15.02-.31.02-.48.02-.43,0-.78-.13-1.04-.39-.26-.26-.41-.57-.46-.94l-.05-.93c-.58.78-1.32,1.38-2.21,1.79s-1.85.61-2.86.61ZM670.26,158.03c.78,0,1.51-.15,2.19-.44.67-.29,1.19-.68,1.54-1.16.32-.32.47-.64.47-.97v-1.93c-1.07-.42-2.17-.62-3.32-.62s-2,.23-2.69.7c-.69.47-1.04,1.08-1.04,1.83,0,.37.07.71.21,1.03s.34.59.6.82c.26.23.56.42.91.55.35.13.72.2,1.12.2Z"/><path class="cls-8" d="M694.04,159.68c-1.08,0-2.04-.27-2.86-.8-.83-.53-1.48-1.21-1.96-2.03v7.9h-2.2v-18.38h1.95v2.45c.52-.8,1.19-1.45,2.01-1.94.83-.49,1.74-.74,2.74-.74.9,0,1.72.18,2.47.55.75.37,1.4.86,1.95,1.49s.98,1.35,1.29,2.16c.31.82.46,1.67.46,2.55,0,.93-.14,1.81-.42,2.64s-.68,1.54-1.2,2.15-1.13,1.09-1.85,1.45c-.72.36-1.51.54-2.38.54ZM693.36,157.78c.65,0,1.24-.14,1.76-.41s.97-.64,1.35-1.1c.38-.46.66-.98.86-1.56.2-.58.3-1.18.3-1.8,0-.65-.12-1.27-.35-1.86-.23-.59-.55-1.11-.95-1.55s-.87-.79-1.41-1.05c-.54-.26-1.13-.39-1.76-.39-.4,0-.81.08-1.24.24-.43.16-.83.37-1.2.62-.38.26-.7.57-.97.92-.28.36-.45.74-.54,1.14v3.73c.18.43.42.84.7,1.21s.61.7.98.98c.37.27.76.49,1.17.65.42.16.85.24,1.3.24Z"/><path class="cls-8" d="M714.16,159.43h-2.2v-7.3c0-1.35-.23-2.35-.7-3.01-.47-.66-1.15-.99-2.05-.99-.43,0-.87.09-1.3.26-.43.17-.84.41-1.21.71s-.71.66-1,1.08c-.29.42-.51.88-.66,1.38v7.88h-2.2v-18.25h2.2v8c.52-.95,1.22-1.69,2.1-2.22.88-.53,1.85-.8,2.9-.8.77,0,1.42.14,1.95.43s.96.67,1.28,1.15c.32.48.55,1.06.69,1.74.14.68.21,1.4.21,2.16v7.8Z"/><path class="cls-8" d="M721.19,159.68c-.62,0-1.19-.1-1.72-.31-.53-.21-1-.5-1.39-.86s-.7-.8-.92-1.29c-.23-.49-.34-1.03-.34-1.61s.13-1.15.4-1.64c.27-.49.65-.91,1.14-1.26.49-.35,1.08-.62,1.75-.83.68-.2,1.41-.3,2.21-.3.63,0,1.28.06,1.92.17.65.12,1.23.27,1.73.47v-1.05c0-1.07-.3-1.9-.9-2.51s-1.45-.91-2.55-.91c-1.32,0-2.7.51-4.15,1.52l-.72-1.42c1.68-1.13,3.38-1.7,5.08-1.7s3.05.46,4.01,1.38c.96.92,1.44,2.21,1.44,3.88v5.33c0,.52.23.78.7.8v1.9c-.23.03-.42.06-.58.08-.15.02-.31.02-.47.02-.43,0-.78-.13-1.04-.39s-.41-.57-.46-.94l-.05-.93c-.58.78-1.32,1.38-2.21,1.79s-1.85.61-2.86.61ZM721.76,158.03c.78,0,1.51-.15,2.19-.44.67-.29,1.19-.68,1.54-1.16.32-.32.48-.64.48-.97v-1.93c-1.07-.42-2.18-.62-3.33-.62s-2,.23-2.69.7c-.69.47-1.04,1.08-1.04,1.83,0,.37.07.71.21,1.03s.34.59.6.82c.26.23.56.42.91.55.35.13.72.2,1.12.2Z"/><path class="cls-8" d="M751.61,159.43h-2.2v-7.3c0-1.37-.22-2.38-.66-3.03-.44-.65-1.1-.97-1.96-.97s-1.7.32-2.41.96c-.71.64-1.21,1.47-1.51,2.49v7.85h-2.2v-7.3c0-1.4-.22-2.42-.65-3.05-.43-.63-1.08-.95-1.95-.95s-1.68.31-2.4.94-1.22,1.45-1.53,2.49v7.88h-2.2v-13.05h2v2.8c.53-.97,1.22-1.71,2.07-2.24.85-.53,1.81-.79,2.88-.79s1.97.3,2.61.89c.64.59,1.04,1.35,1.19,2.29,1.17-2.12,2.82-3.18,4.97-3.18.75,0,1.38.14,1.89.41.51.27.91.66,1.21,1.15.3.49.52,1.07.65,1.74.13.67.2,1.39.2,2.17v7.8Z"/><path class="cls-8" d="M761.99,159.68c-1.02,0-1.94-.25-2.77-.75-.83-.5-1.49-1.15-1.98-1.95v2.45h-1.95v-18.25h2.2v7.8c.55-.85,1.23-1.53,2.02-2.05.8-.52,1.73-.78,2.8-.78.9,0,1.71.19,2.42.58.72.38,1.33.89,1.84,1.51.51.62.9,1.35,1.18,2.17s.41,1.67.41,2.54c0,.92-.16,1.78-.47,2.6s-.75,1.53-1.3,2.14c-.55.61-1.2,1.09-1.96,1.45-.76.36-1.57.54-2.44.54ZM761.44,157.78c.65,0,1.25-.13,1.8-.4s1.02-.62,1.42-1.08.71-.96.93-1.54c.22-.58.32-1.18.32-1.81s-.1-1.25-.31-1.84-.5-1.11-.88-1.56-.82-.81-1.35-1.09c-.53-.27-1.1-.41-1.74-.41-.47,0-.91.08-1.32.25-.42.17-.8.39-1.16.66-.36.28-.68.6-.95.96-.27.37-.51.76-.71,1.17v3.78c.08.42.26.8.54,1.15.27.35.6.65.97.91s.78.46,1.2.61c.43.15.84.22,1.24.22Z"/><path class="cls-8" d="M771.11,143.93v-2.75h2.2v2.75h-2.2ZM771.11,159.43v-13.05h2.2v13.05h-2.2Z"/><path class="cls-8" d="M777.16,141.18h2.2v14.88c0,.48.13.86.39,1.14.26.27.62.41,1.09.41.18,0,.4-.03.65-.09s.48-.13.7-.21l.35,1.78c-.37.15-.8.27-1.3.38-.5.1-.94.15-1.32.15-.85,0-1.52-.24-2.01-.72s-.74-1.16-.74-2.03v-15.67Z"/><path class="cls-8" d="M784.51,143.93v-2.75h2.2v2.75h-2.2ZM784.51,159.43v-13.05h2.2v13.05h-2.2Z"/><path class="cls-8" d="M561.31,187.3c-1.05,0-2.08-.16-3.1-.49s-1.89-.8-2.62-1.41l.95-1.47c.77.58,1.53,1.02,2.3,1.31.77.29,1.58.44,2.42.44.95,0,1.7-.19,2.26-.56.56-.38.84-.9.84-1.59,0-.32-.07-.59-.22-.81-.15-.22-.38-.42-.67-.59s-.68-.32-1.15-.45c-.47-.13-1.01-.28-1.62-.42-.78-.2-1.46-.39-2.03-.58s-1.03-.4-1.4-.65-.63-.55-.8-.9c-.17-.35-.25-.78-.25-1.3,0-.65.13-1.23.39-1.74.26-.51.61-.93,1.06-1.27.45-.34.98-.6,1.59-.78.61-.17,1.26-.26,1.96-.26.98,0,1.9.16,2.75.48s1.57.73,2.15,1.25l-1,1.33c-.55-.48-1.17-.85-1.85-1.09-.68-.24-1.38-.36-2.1-.36-.8,0-1.48.17-2.04.51-.56.34-.84.89-.84,1.64,0,.3.05.55.16.75.11.2.29.38.54.53s.57.28.96.4c.39.12.86.24,1.41.38.87.2,1.62.4,2.26.61.64.21,1.17.45,1.6.74.42.28.74.62.95,1,.21.38.31.85.31,1.4,0,1.22-.47,2.18-1.4,2.9-.93.72-2.19,1.08-3.77,1.08Z"/><path class="cls-8" d="M572.69,187.3c-.62,0-1.19-.1-1.73-.31s-1-.5-1.39-.86c-.39-.37-.7-.8-.93-1.29-.22-.49-.34-1.03-.34-1.61s.13-1.15.4-1.64c.27-.49.65-.91,1.14-1.26.49-.35,1.07-.62,1.75-.83.67-.2,1.41-.3,2.21-.3.63,0,1.27.06,1.92.17s1.22.27,1.72.47v-1.05c0-1.07-.3-1.9-.9-2.51s-1.45-.91-2.55-.91c-1.32,0-2.7.51-4.15,1.52l-.72-1.42c1.68-1.13,3.38-1.7,5.07-1.7s3.05.46,4.01,1.38c.96.92,1.44,2.21,1.44,3.88v5.33c0,.52.23.78.7.8v1.9c-.23.03-.42.06-.57.08-.15.02-.31.02-.48.02-.43,0-.78-.13-1.04-.39-.26-.26-.41-.57-.46-.94l-.05-.93c-.58.78-1.32,1.38-2.21,1.79s-1.85.61-2.86.61ZM573.26,185.65c.78,0,1.51-.15,2.19-.44.67-.29,1.19-.68,1.54-1.16.32-.32.47-.64.47-.97v-1.93c-1.07-.42-2.17-.62-3.32-.62s-2,.23-2.69.7c-.69.47-1.04,1.08-1.04,1.83,0,.37.07.71.21,1.03s.34.59.6.82c.26.23.56.42.91.55.35.13.72.2,1.12.2Z"/><path class="cls-8" d="M586.79,187.3c-.62,0-1.19-.1-1.73-.31s-1-.5-1.39-.86c-.39-.37-.7-.8-.93-1.29-.22-.49-.34-1.03-.34-1.61s.13-1.15.4-1.64c.27-.49.65-.91,1.14-1.26.49-.35,1.07-.62,1.75-.83.67-.2,1.41-.3,2.21-.3.63,0,1.27.06,1.92.17s1.22.27,1.72.47v-1.05c0-1.07-.3-1.9-.9-2.51s-1.45-.91-2.55-.91c-1.32,0-2.7.51-4.15,1.52l-.72-1.42c1.68-1.13,3.38-1.7,5.07-1.7s3.05.46,4.01,1.38c.96.92,1.44,2.21,1.44,3.88v5.33c0,.52.23.78.7.8v1.9c-.23.03-.42.06-.57.08-.15.02-.31.02-.48.02-.43,0-.78-.13-1.04-.39-.26-.26-.41-.57-.46-.94l-.05-.93c-.58.78-1.32,1.38-2.21,1.79s-1.85.61-2.86.61ZM587.36,185.65c.78,0,1.51-.15,2.19-.44.67-.29,1.19-.68,1.54-1.16.32-.32.47-.64.47-.97v-1.93c-1.07-.42-2.17-.62-3.32-.62s-2,.23-2.69.7c-.69.47-1.04,1.08-1.04,1.83,0,.37.07.71.21,1.03s.34.59.6.82c.26.23.56.42.91.55.35.13.72.2,1.12.2Z"/><path class="cls-8" d="M617.21,187.05h-2.2v-7.3c0-1.37-.22-2.38-.66-3.03-.44-.65-1.1-.97-1.96-.97s-1.7.32-2.41.96c-.71.64-1.21,1.47-1.51,2.49v7.85h-2.2v-7.3c0-1.4-.22-2.42-.65-3.05-.43-.63-1.08-.95-1.95-.95s-1.68.31-2.4.94c-.72.62-1.23,1.45-1.52,2.49v7.88h-2.2v-13.05h2v2.8c.53-.97,1.23-1.71,2.08-2.24.85-.53,1.81-.79,2.88-.79s1.97.3,2.61.89c.64.59,1.04,1.35,1.19,2.29,1.17-2.12,2.83-3.18,4.98-3.18.75,0,1.38.14,1.89.41.51.27.91.66,1.21,1.15.3.49.52,1.07.65,1.74.13.67.2,1.39.2,2.17v7.8Z"/><path class="cls-8" d="M630.56,187.05l-5.15-13.05h2.28l4.12,11.12,4.15-11.12h2.1l-5.15,13.05h-2.35Z"/><path class="cls-8" d="M645.74,187.3c-.98,0-1.88-.18-2.69-.55-.81-.37-1.5-.86-2.08-1.48-.57-.62-1.02-1.33-1.34-2.15-.32-.82-.48-1.67-.48-2.58s.16-1.78.49-2.6c.32-.82.78-1.53,1.35-2.15.58-.62,1.27-1.11,2.08-1.47.81-.37,1.7-.55,2.66-.55s1.86.18,2.67.55c.82.37,1.51.86,2.09,1.47.58.62,1.03,1.33,1.35,2.15.33.82.49,1.68.49,2.6s-.16,1.76-.47,2.58c-.32.82-.77,1.53-1.35,2.15-.58.62-1.28,1.11-2.09,1.48-.81.37-1.71.55-2.69.55ZM641.41,180.57c0,.68.11,1.32.34,1.9.22.58.53,1.09.93,1.53.39.43.85.77,1.38,1.02.52.25,1.09.38,1.69.38s1.16-.12,1.69-.38c.52-.25.99-.6,1.39-1.04s.71-.96.94-1.55.34-1.23.34-1.91-.11-1.29-.34-1.89-.54-1.11-.94-1.55c-.4-.44-.86-.79-1.39-1.04-.53-.25-1.09-.38-1.69-.38s-1.16.13-1.69.39c-.53.26-.98.61-1.38,1.05-.39.44-.7.96-.93,1.55-.22.59-.34,1.23-.34,1.91Z"/><path class="cls-8" d="M662.16,175.92c-1.1.03-2.07.32-2.91.85-.84.53-1.44,1.28-1.79,2.23v8.05h-2.2v-13.05h2.05v3.02c.45-.9,1.04-1.63,1.78-2.19.73-.56,1.52-.87,2.35-.94h.43c.12,0,.22,0,.3.03v2Z"/><path class="cls-8" d="M670.06,187.3c-.98,0-1.88-.18-2.7-.54-.82-.36-1.52-.85-2.1-1.46-.58-.62-1.04-1.34-1.36-2.16-.33-.83-.49-1.7-.49-2.61s.16-1.78.49-2.6c.32-.82.78-1.53,1.38-2.15.59-.62,1.29-1.1,2.11-1.46.82-.36,1.72-.54,2.7-.54s1.88.18,2.69.55c.81.37,1.5.85,2.06,1.46s1,1.32,1.31,2.12c.31.81.46,1.65.46,2.51,0,.18,0,.35-.01.5,0,.15-.02.27-.04.35h-10.82c.05.65.2,1.24.45,1.78s.58.99.97,1.38c.4.38.85.68,1.36.9.51.22,1.04.32,1.61.32.4,0,.79-.05,1.17-.16s.74-.25,1.08-.44.63-.41.89-.67c.26-.27.45-.57.59-.9l1.9.53c-.22.48-.51.92-.89,1.33-.38.4-.81.75-1.3,1.04-.49.29-1.04.52-1.64.69s-1.22.25-1.88.25ZM674.54,179.65c-.05-.62-.2-1.19-.46-1.71-.26-.53-.58-.97-.98-1.34-.39-.37-.85-.65-1.36-.86-.52-.21-1.07-.31-1.65-.31s-1.13.1-1.65.31c-.52.21-.97.5-1.36.88s-.71.82-.95,1.34-.39,1.08-.44,1.7h8.85Z"/><path class="cls-8" d="M690.64,187.05h-2.2v-7.3c0-1.4-.21-2.42-.64-3.05-.43-.63-1.07-.95-1.94-.95-.45,0-.9.09-1.35.26-.45.17-.88.41-1.27.71-.4.3-.75.66-1.05,1.08-.3.42-.53.88-.67,1.38v7.88h-2.2v-13.05h2v2.8c.52-.92,1.26-1.65,2.24-2.2.97-.55,2.04-.83,3.19-.83.75,0,1.38.14,1.88.41.5.27.9.66,1.2,1.15.3.49.51,1.07.64,1.74.12.67.19,1.39.19,2.17v7.8Z"/><path class="cls-8" d="M700.94,186.4c-.13.07-.31.15-.53.24s-.46.18-.74.27c-.28.09-.58.17-.9.23-.33.06-.66.09-1.01.09-.8,0-1.49-.22-2.08-.66s-.88-1.13-.88-2.06v-8.78h-1.78v-1.72h1.78v-4.35h2.2v4.35h2.92v1.72h-2.92v8.1c.03.48.19.83.48,1.05.28.22.62.33,1,.33.43,0,.83-.07,1.19-.21.36-.14.6-.25.74-.34l.53,1.75Z"/><path class="cls-8" d="M708.76,187.3c-.98,0-1.88-.18-2.69-.55-.81-.37-1.5-.86-2.08-1.48-.57-.62-1.02-1.33-1.34-2.15-.32-.82-.48-1.67-.48-2.58s.16-1.78.49-2.6c.32-.82.78-1.53,1.35-2.15.58-.62,1.27-1.11,2.08-1.47.81-.37,1.7-.55,2.66-.55s1.86.18,2.67.55c.82.37,1.51.86,2.09,1.47.58.62,1.03,1.33,1.35,2.15.33.82.49,1.68.49,2.6s-.16,1.76-.47,2.58c-.32.82-.77,1.53-1.35,2.15-.58.62-1.28,1.11-2.09,1.48-.81.37-1.71.55-2.69.55ZM704.44,180.57c0,.68.11,1.32.34,1.9.22.58.53,1.09.93,1.53.39.43.85.77,1.38,1.02.52.25,1.09.38,1.69.38s1.16-.12,1.69-.38c.52-.25.99-.6,1.39-1.04s.71-.96.94-1.55.34-1.23.34-1.91-.11-1.29-.34-1.89-.54-1.11-.94-1.55c-.4-.44-.86-.79-1.39-1.04-.53-.25-1.09-.38-1.69-.38s-1.16.13-1.69.39c-.53.26-.98.61-1.38,1.05-.39.44-.7.96-.93,1.55-.22.59-.34,1.23-.34,1.91Z"/><path class="cls-8" d="M724.06,187.3c-.98,0-1.88-.18-2.7-.54-.82-.36-1.52-.85-2.1-1.46-.58-.62-1.04-1.34-1.36-2.16-.32-.83-.49-1.7-.49-2.61s.16-1.78.49-2.6c.33-.82.78-1.53,1.38-2.15.59-.62,1.3-1.1,2.11-1.46.82-.36,1.72-.54,2.7-.54s1.88.18,2.69.55c.81.37,1.5.85,2.06,1.46s1,1.32,1.31,2.12c.31.81.46,1.65.46,2.51,0,.18,0,.35-.01.5s-.02.27-.04.35h-10.82c.05.65.2,1.24.45,1.78s.58.99.98,1.38c.4.38.85.68,1.36.9s1.05.32,1.61.32c.4,0,.79-.05,1.17-.16.38-.11.74-.25,1.08-.44.33-.18.63-.41.89-.67s.45-.57.59-.9l1.9.53c-.22.48-.51.92-.89,1.33-.38.4-.81.75-1.3,1.04-.49.29-1.04.52-1.64.69-.6.17-1.22.25-1.88.25ZM728.54,179.65c-.05-.62-.2-1.19-.46-1.71-.26-.53-.58-.97-.98-1.34-.39-.37-.85-.65-1.36-.86-.52-.21-1.07-.31-1.65-.31s-1.13.1-1.65.31c-.52.21-.97.5-1.36.88-.39.38-.71.82-.95,1.34-.24.52-.39,1.08-.44,1.7h8.85Z"/><path class="cls-12" d="M142.52,104.04c0-14.86,6.42-22.27,9.97-25.65l-.4-.71c-55.44,0-70.15,0-73.46,0h-.4c-.06,0-.14,0-.22,0-.03,0-.06,0-.09,0-.08,0-.12,0-.14,0v8.21h3.75v72.27c0,9.76.28,23.2,5.8,35.7,5.43,12.29,13.15,21.46,26.55,21.46s27.67-14.56,10.71-37.35c-12.61-16.95-34.67-32.3-34.67-67.45,0-14.6,5.3-22.09,7.59-24.64h15.11c-1.71,2.32-6.44,9.92-6.44,22.89,0,42.35,43.82,56.13,43.82,87.21,0,14.82-11.82,30.57-25.04,32.57l-.21,1.33c3.53,1.35,7.42,2.35,11.06,2.99,5.17-.22,48.66-12.22,48.66-50.02s-41.95-46.37-41.95-78.82ZM90.48,147.58c.1-.02.42-.22.51-.23,6.69,15.92,23.7,30,29.26,43.32,3.96,9.49.36,16.15-6.23,16.15-15.2,0-23.55-22.31-23.55-47.57v-11.67ZM148.23,221.21c-.15-.15-.19-.25-.3-.37,5.78-4.5,12.64-13.03,12.64-25.04,0-35.57-44.62-49.02-44.62-88.27,0-11.87,4.83-19.32,6.58-21.62h14.38c-1.49,2.6-4.33,9.25-4.33,19.1,0,35.86,41.76,46.51,41.76,79.28,0,19.24-16.26,33.44-26.12,36.94Z"/><path class="cls-12" d="M78.1,77.68c-.07,0-.13,0-.18,0,.03,0,.06,0,.09,0,.03,0,.06,0,.09,0Z"/><path class="cls-12" d="M184.18,77.68c-6.43,0-11.66,1.32-16.42,4.95-1.12.86-9.35,7.52-9.35,18.42,0,13.24,8.73,23.13,18.26,32.67,7.38,7.38,10.97,12.08,12.48,14.64l.95-.27v-62.19h3.77c0-.16,0-8.47,0-8.22h-9.7ZM181.25,126.73c-.07.02-.3.13-.41.16-3.96-5.27-13.87-14.49-13.87-25.94,0-6.61,4.47-12.6,9.18-14.25,1.42-.49,2.77-.54,4.25-.54.54,0,.3,0,.86,0v40.57Z"/><path class="cls-2" d="M218.1,116.07l3.1-.21c.11.37.16.8.27,1.12.96,3.16,3.58,5.83,7.22,5.83,3.32,0,6.79-2.14,6.79-6.21,0-4.39-3.96-6.47-9.2-8.61-4.76-1.98-8.88-5.19-8.88-10.65,0-6.21,5.51-9.74,11.93-9.74,2.78,0,6.05.64,8.83,1.76.32.11.7.27,1.02.38l-.7,6.79-3.16-.16c0-.32-.11-.7-.16-1.02-.7-2.57-3.05-4.39-6.31-4.39s-5.78,1.87-5.78,5.14c0,2.89,2.03,4.49,7.06,6.53,5.67,2.3,11.56,6.47,11.56,13.05s-6.26,10.65-13.32,10.65c-3.69,0-6.74-1.23-9.95-2.83l-.32-7.44Z"/><path class="cls-2" d="M259.56,123.62c-1.82,1.66-3.96,2.73-6.58,2.73-4.71,0-5.88-3.64-5.88-7.7v-16.26h-2.62v-3.75c2.78,0,3.85-2.03,3.96-4.39l.11-3.05h4.55v7.44h6.26v1.34c0,1.66-1.23,2.41-2.78,2.41h-3.48v16.75c0,1.98.8,3.69,2.73,3.69,1.07,0,2.09-.59,2.83-1.07l.91,1.87Z"/><path class="cls-2" d="M283.82,121.26c-2.19,3.32-6.15,5.08-10.06,5.08-8.61,0-13.32-7.12-13.32-15.03,0-7.17,5.62-13.27,12.95-13.27,4.65,0,9.47,2.25,10.59,6.58.27.8.43,1.66.43,2.62,0,4.82-4.17,6.69-9.04,6.69h-8.61c.21,4.39,3.16,8.51,7.7,8.77,3.64,0,5.72-.86,8.4-3.16l.96,1.71ZM270.07,110.4c4.25,0,8.67-.01,8.67-3.91,0-2.62-2.03-5.03-5.03-5.03-4.6,0-6.95,4.87-6.95,8.93h3.32Z"/><path class="cls-2" d="M289.39,89.54c0-1.12-1.02-1.23-1.82-1.23h-.48v-2.41h4.28c3.32,0,4.01,1.66,4.01,4.6v30.28c0,1.34.38,1.71,1.45,2.25v2.67h-8.93v-2.67c1.07-.54,1.5-.91,1.5-2.25v-31.24Z"/><path class="cls-2" d="M302.65,89.54c0-1.12-1.02-1.23-1.82-1.23h-.48v-2.41h4.28c3.32,0,4.01,1.66,4.01,4.6v30.28c0,1.34.38,1.71,1.45,2.25v2.67h-8.93v-2.67c1.07-.54,1.5-.91,1.5-2.25v-31.24Z"/><path class="cls-2" d="M336.4,121.26c-2.19,3.32-6.15,5.08-10.06,5.08-8.61,0-13.32-7.12-13.32-15.03,0-7.17,5.62-13.27,12.95-13.27,4.65,0,9.47,2.25,10.59,6.58.27.8.43,1.66.43,2.62,0,4.82-4.17,6.69-9.04,6.69h-8.61c.21,4.39,3.16,8.51,7.7,8.77,3.64,0,5.72-.86,8.4-3.16l.96,1.71ZM322.65,110.4c4.25,0,8.67-.01,8.67-3.91,0-2.62-2.03-5.03-5.03-5.03-4.6,0-6.96,4.87-6.96,8.93h3.32Z"/><path class="cls-2" d="M340.77,125.7v-2.73c.37,0,.7-.11.91-.32.48-.37.59-1.23.59-1.87v-18.88c0-.75-.43-1.12-1.07-1.23-.27-.11-.59-.11-.91-.11v-2.35h4.01c3.05,0,3.69,1.66,3.75,3.53,1.98-2.41,4.6-3.48,7.65-3.48,5.94,0,8.51,4.07,8.51,9.31v13.21c0,.64.05,1.39.59,1.87.21.21.48.32.91.32v2.73h-8.99v-2.73c1.34,0,1.5-1.07,1.5-2.19v-13.37c0-2.67-1.34-5.51-4.39-5.51-2.73,0-4.92,2.14-5.72,4.65v14.23c0,.43,0,.96.21,1.39.05.16.16.32.32.48.27.21.54.32.96.32v2.73h-8.83Z"/><path class="cls-2" d="M366.96,85.89h4.33c3.42,0,4.01,1.65,4.01,4.44v10.22c1.5-1.77,4.12-2.51,6.53-2.51,7.81,0,11.88,7.28,11.88,14.23,0,7.86-4.65,14.07-13.48,14.07-5.94,0-10.75-2.83-10.75-9.04v-27.77c0-.75-.53-1.02-1.07-1.12-.32-.11-.64-.11-.96-.11h-.48v-2.41ZM375.3,117.52c0,3.37,1.55,5.51,4.71,5.51,5.67,0,7.22-6.74,7.22-11.29,0-4.12-1.45-9.84-6.53-9.84-2.03,0-4.44,1.18-5.4,3.05v12.57Z"/><path class="cls-2" d="M409.96,98.05c7.86,0,13.37,6.47,13.37,14.02s-5.51,14.28-13.37,14.28-13.48-6.9-13.48-14.44,5.72-13.86,13.48-13.86ZM409.9,122.98c5.56,0,6.79-6.63,6.79-10.75,0-4.44-1.44-10.81-7.01-10.81s-6.74,6.1-6.74,10.43c0,4.01,1.18,11.13,6.95,11.13Z"/><path class="cls-2" d="M426.32,118.48h2.94c.8,3,3.05,4.87,6.21,4.87,2.46,0,4.65-1.18,4.65-3.48,0-1.55-1.02-2.51-2.3-3.26-.86-.48-1.77-.91-2.67-1.34-4.17-1.76-9.47-4.07-9.47-9.36,0-4.71,4.12-7.86,10.22-7.86,2.46,0,5.67.48,7.86,1.39l.32.11v5.94h-3.1c-.75-2.67-2.73-4.23-5.56-4.23s-4.28,1.66-4.28,3.1c0,2.14,2.94,3.8,5.94,5.19.64.32,1.28.59,1.93.91,3.58,1.66,6.9,3.37,6.9,7.92,0,6.95-7.65,7.97-10.81,7.97s-5.78-.86-8.45-2.19l-.32-.16v-5.51Z"/><path class="cls-2" d="M471.78,120.94v.05c-2.41,3-5.83,5.35-9.84,5.35-8.56,0-13.43-6.21-13.43-14.02s5.03-14.28,13.43-14.28c3.26,0,5.56.43,8.29,1.71.32.11.64.27,1.02.43v5.3h-3.05c-.16-.37-.27-.75-.48-1.07-.96-1.98-2.73-3.26-5.19-3.26-5.62,0-7.49,6.37-7.49,10.97s2.03,10.54,7.92,10.54c2.78,0,5.03-1.28,6.69-3.26.32-.32.59-.7.8-1.07l1.34,2.62Z"/><path class="cls-2" d="M473.93,125.7v-2.67l.27-.11c.48-.27,1.23-.7,1.23-2.14v-31.24c0-1.07-1.18-1.23-2.03-1.23h-.48v-2.41h4.49c3.91,0,4.14,2.23,4.15,5.35,0,2.46.03,9.84.03,9.84,1.77-2.09,3.69-2.89,6.26-2.89,5.88,0,9.31,4.07,9.31,9.04v13.54c0,1.28.43,1.71,1.5,2.25v2.67h-8.99v-2.67c1.02-.38,1.6-1.12,1.6-2.25v-13.37c0-3-1.82-5.4-4.39-5.62-2.67,0-4.65,1.55-5.62,3.96v15.03c0,.96.38,1.5,1.12,1.93.16.11.43.21.64.32v2.67h-9.09Z"/><path class="cls-2" d="M226.23,160.54c.85,0,1.56-.17,2.14-.52.58-.35,1.05-.8,1.4-1.35s.61-1.19.75-1.91c.15-.72.22-1.46.22-2.22v-9.41h3.56v9.41c0,1.27-.15,2.45-.46,3.56-.3,1.11-.78,2.08-1.43,2.91s-1.49,1.49-2.51,1.98c-1.02.49-2.24.73-3.67.73s-2.73-.26-3.76-.77c-1.03-.51-1.87-1.19-2.51-2.03s-1.11-1.82-1.39-2.92c-.29-1.11-.43-2.26-.43-3.46v-9.41h3.59v9.41c0,.78.07,1.53.22,2.25.15.72.4,1.36.75,1.91.35.55.82,1,1.39,1.34.57.34,1.27.51,2.11.51Z"/><path class="cls-2" d="M245.08,151.75v11.83h-3.59v-18.46h2.78l9.62,12.12v-12.09h3.59v18.43h-2.91l-9.49-11.83Z"/><path class="cls-2" d="M264.89,163.58v-18.46h3.59v18.46h-3.59Z"/><path class="cls-2" d="M277.79,145.12l4.99,13.96,4.94-13.96h3.77l-7.2,18.46h-3.02l-7.25-18.46h3.77Z"/><path class="cls-2" d="M309.84,160.43v3.15h-12.82v-18.46h12.58v3.15h-9v4.45h7.77v2.91h-7.77v4.81h9.23Z"/><path class="cls-2" d="M316.21,163.58v-18.46h8.16c.85,0,1.63.18,2.35.53s1.34.82,1.86,1.4c.52.58.93,1.24,1.22,1.98.29.74.44,1.48.44,2.22,0,1.2-.3,2.28-.9,3.26-.6.98-1.41,1.69-2.43,2.12l4.21,6.94h-4.03l-3.77-6.19h-3.54v6.19h-3.59ZM319.8,154.25h4.5c.33,0,.64-.08.92-.23.29-.16.53-.37.74-.64.21-.27.37-.58.49-.95.12-.36.18-.75.18-1.17s-.07-.83-.21-1.2c-.14-.36-.33-.68-.56-.95-.23-.27-.5-.48-.81-.62s-.61-.22-.92-.22h-4.34v5.98Z"/><path class="cls-2" d="M348.06,149.96c-.12-.12-.34-.29-.66-.49s-.71-.41-1.17-.61-.96-.37-1.49-.51c-.54-.14-1.08-.21-1.64-.21-.99,0-1.72.18-2.21.55-.49.36-.73.88-.73,1.53,0,.38.09.7.27.95.18.25.45.47.79.66s.78.36,1.31.52c.53.16,1.14.32,1.83.49.9.24,1.72.5,2.46.78s1.36.62,1.87,1.04c.51.42.9.91,1.18,1.5.28.58.42,1.3.42,2.14,0,.99-.19,1.83-.56,2.54s-.88,1.27-1.51,1.7c-.63.43-1.36.75-2.18.95-.82.2-1.69.3-2.59.3-1.39,0-2.76-.21-4.11-.62s-2.57-1-3.64-1.77l1.59-3.09c.16.16.44.36.84.61s.89.5,1.44.75c.55.25,1.17.46,1.85.64.68.17,1.37.26,2.08.26,1.98,0,2.96-.63,2.96-1.9,0-.4-.11-.74-.34-1.01s-.55-.52-.96-.73-.92-.4-1.51-.57c-.59-.17-1.25-.36-1.98-.57-.88-.24-1.65-.51-2.3-.79s-1.19-.62-1.62-1.01c-.43-.39-.76-.84-.97-1.35-.22-.51-.33-1.12-.33-1.83,0-.94.17-1.77.52-2.5.35-.73.83-1.33,1.44-1.82.62-.48,1.33-.85,2.15-1.1.81-.25,1.69-.38,2.62-.38,1.3,0,2.5.2,3.59.61,1.09.41,2.04.89,2.86,1.44l-1.59,2.91Z"/><path class="cls-2" d="M356.57,163.58v-18.46h3.59v18.46h-3.59Z"/><path class="cls-2" d="M381.37,148.27h-5.9v15.31h-3.56v-15.31h-5.9v-3.15h15.37v3.15Z"/><path class="cls-2" d="M389.3,145.12l4.55,8.89,4.63-8.89h3.87l-6.71,12.01v6.45h-3.56v-6.5l-6.68-11.96h3.9Z"/><path class="cls-2" d="M218.17,191.75v-18.46h3.59v18.46h-3.59Z"/><path class="cls-2" d="M231.25,173.29l4.55,8.89,4.63-8.89h3.87l-6.71,12.01v6.45h-3.56v-6.5l-6.68-11.96h3.9Z"/><path class="cls-2" d="M257.69,188.7c.85,0,1.56-.17,2.14-.52.58-.35,1.05-.8,1.4-1.35.35-.55.61-1.19.75-1.91.15-.72.22-1.46.22-2.22v-9.41h3.56v9.41c0,1.27-.15,2.45-.46,3.56-.3,1.11-.78,2.08-1.43,2.91-.65.83-1.49,1.49-2.51,1.98-1.02.49-2.25.73-3.67.73s-2.73-.26-3.76-.77c-1.03-.51-1.87-1.19-2.51-2.03-.64-.84-1.11-1.82-1.39-2.92s-.43-2.26-.43-3.46v-9.41h3.59v9.41c0,.78.07,1.53.22,2.25.15.72.4,1.36.75,1.91s.82,1,1.39,1.34c.57.34,1.27.51,2.11.51Z"/><path class="cls-2" d="M276.54,179.92v11.83h-3.59v-18.46h2.78l9.62,12.12v-12.09h3.59v18.43h-2.91l-9.49-11.83Z"/><path class="cls-2" d="M296.35,191.75v-18.46h3.59v18.46h-3.59Z"/><path class="cls-2" d="M309.25,173.29l4.99,13.96,4.94-13.96h3.77l-7.2,18.46h-3.02l-7.25-18.46h3.77Z"/><path class="cls-2" d="M341.3,188.6v3.15h-12.82v-18.46h12.58v3.15h-9v4.45h7.77v2.91h-7.77v4.81h9.23Z"/><path class="cls-2" d="M358.28,178.12c-.12-.12-.34-.29-.66-.49-.32-.21-.71-.41-1.17-.61-.46-.2-.96-.37-1.5-.51-.54-.14-1.08-.21-1.64-.21-.99,0-1.73.18-2.21.55-.48.36-.73.88-.73,1.53,0,.38.09.7.27.95.18.25.45.47.79.66.35.19.79.36,1.31.52.53.16,1.14.32,1.83.49.9.24,1.72.5,2.46.78s1.36.62,1.87,1.04c.51.42.91.91,1.18,1.5s.42,1.3.42,2.14c0,.99-.19,1.83-.56,2.54s-.88,1.27-1.51,1.7c-.63.43-1.36.75-2.18.95-.82.2-1.69.3-2.59.3-1.39,0-2.76-.21-4.11-.62-1.35-.42-2.57-1-3.64-1.77l1.59-3.09c.16.16.44.36.85.61.41.25.89.5,1.44.75.55.25,1.17.46,1.85.64.68.17,1.37.26,2.08.26,1.98,0,2.96-.63,2.96-1.9,0-.4-.11-.74-.34-1.01-.22-.28-.54-.52-.96-.73s-.92-.4-1.51-.57c-.59-.17-1.25-.36-1.98-.57-.88-.24-1.65-.51-2.3-.79-.65-.29-1.19-.62-1.62-1.01-.43-.39-.76-.84-.98-1.35-.22-.51-.33-1.12-.33-1.83,0-.94.17-1.77.52-2.5.35-.73.83-1.33,1.44-1.82.62-.48,1.33-.85,2.15-1.1.81-.25,1.69-.38,2.63-.38,1.3,0,2.5.2,3.59.61s2.04.89,2.86,1.44l-1.59,2.91Z"/><path class="cls-2" d="M366.78,191.75v-18.46h3.59v18.46h-3.59Z"/><path class="cls-2" d="M391.59,176.43h-5.9v15.31h-3.56v-15.31h-5.9v-3.15h15.37v3.15Z"/><path class="cls-2" d="M412.96,173.29v18.46h-3.56v-7.88h-8.37v7.88h-3.59v-18.46h3.59v7.46h8.37v-7.46h3.56Z"/><path class="cls-2" d="M420.37,191.75v-18.46h3.59v18.46h-3.59Z"/><path class="cls-2" d="M226.23,216.87c.85,0,1.56-.17,2.15-.52s1.05-.8,1.4-1.35.61-1.19.75-1.91c.15-.72.22-1.46.22-2.22v-9.41h3.56v9.41c0,1.27-.15,2.45-.46,3.56-.3,1.11-.78,2.08-1.43,2.91s-1.49,1.49-2.51,1.98-2.25.73-3.67.73-2.73-.26-3.76-.77c-1.03-.51-1.87-1.19-2.51-2.03-.64-.84-1.1-1.82-1.39-2.92-.29-1.11-.43-2.26-.43-3.46v-9.41h3.59v9.41c0,.78.07,1.53.22,2.25.15.72.4,1.36.75,1.91.35.55.82,1,1.39,1.34s1.27.51,2.11.51Z"/><path class="cls-2" d="M245.08,208.08v11.83h-3.59v-18.46h2.78l9.62,12.12v-12.09h3.59v18.43h-2.91l-9.49-11.83Z"/><path class="cls-2" d="M264.89,219.91v-18.46h3.59v18.46h-3.59Z"/><path class="cls-2" d="M277.79,201.45l4.99,13.96,4.94-13.96h3.77l-7.2,18.46h-3.02l-7.25-18.46h3.77Z"/><path class="cls-2" d="M309.84,216.76v3.15h-12.82v-18.46h12.58v3.15h-9v4.45h7.77v2.91h-7.77v4.81h9.23Z"/><path class="cls-2" d="M316.21,219.91v-18.46h8.16c.85,0,1.63.18,2.35.53.72.36,1.34.82,1.86,1.4.52.58.93,1.24,1.22,1.98.29.74.44,1.48.44,2.22,0,1.2-.3,2.28-.9,3.26s-1.41,1.69-2.43,2.12l4.21,6.94h-4.03l-3.77-6.19h-3.54v6.19h-3.59ZM319.8,210.57h4.5c.33,0,.64-.08.92-.23.29-.16.53-.37.74-.64s.37-.58.49-.95c.12-.36.18-.75.18-1.17s-.07-.83-.21-1.2c-.14-.36-.32-.68-.56-.95s-.5-.48-.81-.62c-.3-.15-.61-.22-.92-.22h-4.34v5.98Z"/><path class="cls-2" d="M348.06,206.28c-.12-.12-.34-.29-.66-.49-.32-.21-.71-.41-1.17-.61s-.96-.37-1.49-.51c-.54-.14-1.08-.21-1.64-.21-.99,0-1.72.18-2.21.55-.49.36-.73.88-.73,1.53,0,.38.09.7.27.95.18.25.45.47.79.66.35.19.78.36,1.31.52.53.16,1.14.32,1.83.49.9.24,1.72.5,2.46.78.74.28,1.36.62,1.87,1.04.51.42.91.91,1.18,1.5.28.58.42,1.3.42,2.14,0,.99-.19,1.83-.56,2.54-.37.7-.88,1.27-1.51,1.7-.63.43-1.36.75-2.18.95s-1.69.3-2.59.3c-1.39,0-2.76-.21-4.11-.62-1.35-.42-2.56-1-3.64-1.77l1.59-3.09c.16.16.44.36.84.61.41.25.89.5,1.44.75.55.25,1.17.46,1.85.64.68.17,1.37.26,2.08.26,1.98,0,2.96-.63,2.96-1.9,0-.4-.11-.74-.34-1.01-.23-.28-.55-.52-.96-.73s-.92-.4-1.51-.57c-.59-.17-1.25-.36-1.98-.57-.88-.24-1.65-.51-2.3-.79-.65-.29-1.19-.62-1.62-1.01-.43-.39-.76-.84-.97-1.35-.22-.51-.32-1.12-.32-1.83,0-.94.17-1.77.52-2.5.35-.73.83-1.33,1.44-1.82.62-.48,1.33-.85,2.14-1.1s1.69-.38,2.63-.38c1.3,0,2.5.2,3.59.61,1.09.41,2.04.89,2.86,1.44l-1.59,2.91Z"/><path class="cls-2" d="M356.57,219.91v-18.46h3.59v18.46h-3.59Z"/><path class="cls-2" d="M381.37,204.59h-5.9v15.31h-3.56v-15.31h-5.9v-3.15h15.37v3.15Z"/><path class="cls-2" d="M400.04,216.76v3.15h-12.82v-18.46h12.58v3.15h-9v4.45h7.77v2.91h-7.77v4.81h9.23Z"/><path class="cls-2" d="M406.41,219.91v-18.46h3.59v18.46h-3.59Z"/><path class="cls-2" d="M431.21,204.59h-5.9v15.31h-3.56v-15.31h-5.9v-3.15h15.37v3.15Z"/></svg>