<?xml version="1.0" encoding="UTF-8"?>
<svg id="artwork" xmlns="http://www.w3.org/2000/svg" viewBox="0 0 434.72 464.44">
  <defs>
    <style>
      .cls-1 {
        fill: #61223b;
      }

      .cls-2 {
        fill: #caa258;
      }
    </style>
  </defs>
  <g>
    <path class="cls-2" d="M224.25,103.89c0-14.86,6.42-22.27,9.97-25.65l-.4-.71h-74.31v8.22h3.75v72.27c0,9.76.28,23.2,5.8,35.7,5.43,12.29,13.15,21.46,26.55,21.46s27.67-14.56,10.71-37.35c-12.61-16.95-34.67-32.3-34.67-67.45,0-14.6,5.3-22.09,7.59-24.64h15.11c-1.71,2.32-6.44,9.92-6.44,22.89,0,42.35,43.82,56.13,43.82,87.21,0,14.82-11.82,30.57-25.04,32.57l-.21,1.33c3.53,1.35,7.42,2.35,11.06,2.99,5.17-.22,48.66-12.22,48.66-50.02s-41.95-46.37-41.95-78.82ZM172.2,147.44c.1-.02.42-.22.51-.23,6.69,15.92,23.7,30,29.26,43.32,3.96,9.49.36,16.15-6.23,16.15-15.2,0-23.55-22.31-23.55-47.57v-11.67ZM229.96,221.07c-.15-.15-.19-.25-.3-.37,5.78-4.5,12.64-13.03,12.64-25.04,0-35.57-44.62-49.02-44.62-88.27,0-11.87,4.83-19.32,6.58-21.62h14.38c-1.49,2.6-4.33,9.25-4.33,19.1,0,35.86,41.76,46.51,41.76,79.28,0,19.24-16.26,33.44-26.12,36.94Z"/>
    <path class="cls-2" d="M159.82,77.54c-.07,0-.13,0-.18,0,.03,0,.06,0,.09,0,.03,0,.06,0,.09,0Z"/>
    <path class="cls-2" d="M265.91,77.53c-6.43,0-11.66,1.32-16.42,4.95-1.12.86-9.35,7.52-9.35,18.42,0,13.24,8.73,23.13,18.26,32.67,7.38,7.38,10.97,12.08,12.48,14.64l.95-.27v-62.19h3.77c0-.16,0-8.47,0-8.22h-9.7ZM262.98,126.59c-.07.02-.3.13-.41.16-3.96-5.27-13.87-14.49-13.87-25.94,0-6.61,4.47-12.6,9.18-14.25,1.42-.49,2.77-.54,4.25-.54.54,0,.3,0,.86,0v40.57Z"/>
  </g>
  <g>
    <path class="cls-1" d="M133.52,327.39c.85,0,1.56-.17,2.15-.52.58-.35,1.05-.8,1.4-1.35.35-.55.61-1.19.75-1.91.15-.72.22-1.46.22-2.22v-9.41h3.56v9.41c0,1.27-.15,2.45-.46,3.56-.3,1.11-.78,2.08-1.43,2.91-.65.83-1.49,1.49-2.51,1.98-1.02.49-2.25.73-3.67.73s-2.73-.26-3.76-.77c-1.03-.51-1.87-1.19-2.51-2.03s-1.1-1.82-1.39-2.92c-.29-1.11-.43-2.26-.43-3.46v-9.41h3.59v9.41c0,.78.07,1.53.22,2.25.15.72.4,1.36.75,1.91s.82,1,1.39,1.34,1.27.51,2.11.51Z"/>
    <path class="cls-1" d="M152.37,318.6v11.83h-3.59v-18.46h2.78l9.62,12.12v-12.09h3.59v18.43h-2.91l-9.49-11.83Z"/>
    <path class="cls-1" d="M172.18,330.43v-18.46h3.59v18.46h-3.59Z"/>
    <path class="cls-1" d="M185.08,311.97l4.99,13.96,4.94-13.96h3.77l-7.2,18.46h-3.02l-7.25-18.46h3.77Z"/>
    <path class="cls-1" d="M217.14,327.29v3.15h-12.82v-18.46h12.58v3.15h-9v4.45h7.77v2.91h-7.77v4.81h9.23Z"/>
    <path class="cls-1" d="M223.51,330.43v-18.46h8.16c.85,0,1.63.18,2.35.53s1.34.82,1.86,1.4c.52.58.93,1.24,1.22,1.98s.44,1.48.44,2.22c0,1.2-.3,2.28-.9,3.26s-1.41,1.69-2.43,2.12l4.21,6.94h-4.03l-3.77-6.19h-3.54v6.19h-3.59ZM227.1,321.1h4.5c.33,0,.64-.08.92-.23.29-.16.53-.37.74-.64.21-.27.37-.58.49-.95.12-.36.18-.75.18-1.17s-.07-.83-.21-1.2c-.14-.36-.33-.68-.56-.95-.23-.27-.5-.48-.81-.62s-.61-.22-.92-.22h-4.34v5.98Z"/>
    <path class="cls-1" d="M255.36,316.81c-.12-.12-.34-.29-.66-.49s-.71-.41-1.17-.61c-.46-.2-.96-.37-1.5-.51-.54-.14-1.08-.21-1.64-.21-.99,0-1.73.18-2.21.55-.49.36-.73.88-.73,1.53,0,.38.09.7.27.95.18.25.45.47.79.66s.78.36,1.31.52c.53.16,1.14.32,1.83.49.9.24,1.72.5,2.46.78.74.28,1.36.62,1.87,1.04s.91.91,1.18,1.5.42,1.3.42,2.14c0,.99-.19,1.83-.56,2.54-.37.7-.88,1.27-1.51,1.7-.63.43-1.36.75-2.18.95s-1.69.3-2.59.3c-1.39,0-2.76-.21-4.11-.62s-2.57-1-3.64-1.77l1.59-3.09c.16.16.44.36.84.61s.89.5,1.44.75c.55.25,1.17.46,1.85.64.68.17,1.37.26,2.08.26,1.98,0,2.96-.63,2.96-1.9,0-.4-.11-.74-.34-1.01-.23-.28-.55-.52-.96-.73s-.92-.4-1.51-.57c-.59-.17-1.25-.36-1.98-.57-.88-.24-1.65-.51-2.3-.79s-1.19-.62-1.62-1.01c-.43-.39-.76-.84-.98-1.35-.22-.51-.32-1.12-.32-1.83,0-.94.17-1.77.52-2.5.35-.73.83-1.33,1.44-1.82.62-.48,1.33-.85,2.14-1.1s1.69-.38,2.63-.38c1.3,0,2.5.2,3.59.61s2.04.89,2.86,1.44l-1.59,2.91Z"/>
    <path class="cls-1" d="M263.86,330.43v-18.46h3.59v18.46h-3.59Z"/>
    <path class="cls-1" d="M288.67,315.12h-5.9v15.31h-3.56v-15.31h-5.9v-3.15h15.37v3.15Z"/>
    <path class="cls-1" d="M296.59,311.97l4.55,8.89,4.63-8.89h3.87l-6.71,12.01v6.45h-3.56v-6.5l-6.68-11.96h3.9Z"/>
  </g>
  <g>
    <path class="cls-1" d="M114.66,358.61v-18.46h3.59v18.46h-3.59Z"/>
    <path class="cls-1" d="M127.74,340.15l4.55,8.89,4.63-8.89h3.87l-6.71,12.01v6.45h-3.56v-6.5l-6.68-11.96h3.9Z"/>
    <path class="cls-1" d="M154.18,355.57c.85,0,1.56-.17,2.15-.52.58-.35,1.05-.8,1.4-1.35s.61-1.19.75-1.91c.15-.72.22-1.46.22-2.22v-9.41h3.56v9.41c0,1.27-.15,2.45-.46,3.56-.3,1.11-.78,2.08-1.43,2.91s-1.49,1.49-2.51,1.98c-1.02.49-2.25.73-3.67.73s-2.73-.26-3.76-.77c-1.03-.51-1.87-1.19-2.51-2.03-.64-.84-1.1-1.82-1.39-2.92s-.43-2.26-.43-3.46v-9.41h3.59v9.41c0,.78.07,1.53.22,2.25.15.72.4,1.36.75,1.91s.82,1,1.39,1.34c.57.34,1.27.51,2.11.51Z"/>
    <path class="cls-1" d="M173.03,346.78v11.83h-3.59v-18.46h2.78l9.62,12.12v-12.09h3.59v18.43h-2.91l-9.49-11.83Z"/>
    <path class="cls-1" d="M192.84,358.61v-18.46h3.59v18.46h-3.59Z"/>
    <path class="cls-1" d="M205.74,340.15l4.99,13.96,4.94-13.96h3.77l-7.2,18.46h-3.02l-7.25-18.46h3.77Z"/>
    <path class="cls-1" d="M237.8,355.46v3.15h-12.82v-18.46h12.58v3.15h-9v4.45h7.77v2.91h-7.77v4.81h9.23Z"/>
    <path class="cls-1" d="M254.77,344.98c-.12-.12-.34-.29-.66-.49-.32-.21-.71-.41-1.17-.61s-.96-.37-1.49-.51c-.54-.14-1.08-.21-1.64-.21-.99,0-1.72.18-2.21.55-.49.36-.73.88-.73,1.53,0,.38.09.7.27.95.18.25.45.47.79.66s.78.36,1.31.52c.53.16,1.14.32,1.83.49.9.24,1.72.5,2.46.78.74.28,1.36.62,1.87,1.04.51.42.91.91,1.18,1.5s.42,1.3.42,2.14c0,.99-.19,1.83-.56,2.54-.37.7-.88,1.27-1.51,1.7-.63.43-1.36.75-2.18.95s-1.69.3-2.59.3c-1.39,0-2.76-.21-4.11-.62-1.35-.42-2.57-1-3.64-1.77l1.59-3.09c.16.16.44.36.84.61s.89.5,1.44.75c.55.25,1.17.46,1.85.64.68.17,1.37.26,2.08.26,1.98,0,2.96-.63,2.96-1.9,0-.4-.11-.74-.34-1.01s-.55-.52-.96-.73-.92-.4-1.51-.57c-.59-.17-1.25-.36-1.98-.57-.88-.24-1.65-.51-2.3-.79-.65-.29-1.19-.62-1.62-1.01-.43-.39-.76-.84-.97-1.35-.22-.51-.33-1.12-.33-1.83,0-.94.17-1.77.52-2.5.35-.73.83-1.33,1.44-1.82.62-.48,1.33-.85,2.15-1.1.81-.25,1.69-.38,2.63-.38,1.3,0,2.5.2,3.59.61s2.04.89,2.86,1.44l-1.59,2.91Z"/>
    <path class="cls-1" d="M263.28,358.61v-18.46h3.59v18.46h-3.59Z"/>
    <path class="cls-1" d="M288.08,343.29h-5.9v15.31h-3.56v-15.31h-5.9v-3.15h15.37v3.15Z"/>
    <path class="cls-1" d="M309.45,340.15v18.46h-3.56v-7.88h-8.37v7.88h-3.59v-18.46h3.59v7.46h8.37v-7.46h3.56Z"/>
    <path class="cls-1" d="M316.86,358.61v-18.46h3.59v18.46h-3.59Z"/>
  </g>
  <g>
    <path class="cls-1" d="M119.09,383.73c.85,0,1.56-.17,2.15-.52.58-.35,1.05-.8,1.4-1.35s.61-1.19.75-1.91c.15-.72.22-1.46.22-2.22v-9.41h3.56v9.41c0,1.27-.15,2.45-.46,3.56-.3,1.11-.78,2.08-1.43,2.91s-1.49,1.49-2.51,1.98c-1.02.49-2.25.73-3.67.73s-2.73-.26-3.76-.77c-1.03-.51-1.87-1.19-2.51-2.03-.64-.84-1.1-1.82-1.39-2.92s-.43-2.26-.43-3.46v-9.41h3.59v9.41c0,.78.07,1.53.22,2.25.15.72.4,1.36.75,1.91s.82,1,1.39,1.34c.57.34,1.27.51,2.11.51Z"/>
    <path class="cls-1" d="M137.94,374.95v11.83h-3.59v-18.46h2.78l9.62,12.12v-12.09h3.59v18.43h-2.91l-9.49-11.83Z"/>
    <path class="cls-1" d="M157.75,386.78v-18.46h3.59v18.46h-3.59Z"/>
    <path class="cls-1" d="M170.65,368.32l4.99,13.96,4.94-13.96h3.77l-7.2,18.46h-3.02l-7.25-18.46h3.77Z"/>
    <path class="cls-1" d="M202.71,383.63v3.15h-12.82v-18.46h12.58v3.15h-9v4.45h7.77v2.91h-7.77v4.81h9.23Z"/>
    <path class="cls-1" d="M209.08,386.78v-18.46h8.16c.85,0,1.63.18,2.35.53.72.36,1.34.82,1.86,1.4.52.58.93,1.24,1.22,1.98s.44,1.48.44,2.22c0,1.2-.3,2.28-.9,3.26-.6.98-1.41,1.69-2.43,2.12l4.21,6.94h-4.03l-3.77-6.19h-3.54v6.19h-3.59ZM212.67,377.44h4.5c.33,0,.64-.08.92-.23.29-.16.53-.37.74-.64s.37-.58.49-.95c.12-.36.18-.75.18-1.17s-.07-.83-.21-1.2c-.14-.36-.33-.68-.56-.95-.23-.27-.5-.48-.81-.62-.3-.15-.61-.22-.92-.22h-4.34v5.98Z"/>
    <path class="cls-1" d="M240.93,373.15c-.12-.12-.34-.29-.66-.49-.32-.21-.71-.41-1.17-.61s-.96-.37-1.49-.51c-.54-.14-1.08-.21-1.64-.21-.99,0-1.72.18-2.21.55-.49.36-.73.88-.73,1.53,0,.38.09.7.27.95.18.25.45.47.79.66s.78.36,1.31.52c.53.16,1.14.32,1.83.49.9.24,1.72.5,2.46.78.74.28,1.36.62,1.87,1.04.51.42.91.91,1.18,1.5s.42,1.3.42,2.14c0,.99-.19,1.83-.56,2.54-.37.7-.88,1.27-1.51,1.7-.63.43-1.36.75-2.18.95s-1.69.3-2.59.3c-1.39,0-2.76-.21-4.11-.62-1.35-.42-2.57-1-3.64-1.77l1.59-3.09c.16.16.44.36.84.61s.89.5,1.44.75c.55.25,1.17.46,1.85.64.68.17,1.37.26,2.08.26,1.98,0,2.96-.63,2.96-1.9,0-.4-.11-.74-.34-1.01s-.55-.52-.96-.73-.92-.4-1.51-.57c-.59-.17-1.25-.36-1.98-.57-.88-.24-1.65-.51-2.3-.79-.65-.29-1.19-.62-1.62-1.01-.43-.39-.76-.84-.97-1.35-.22-.51-.33-1.12-.33-1.83,0-.94.17-1.77.52-2.5.35-.73.83-1.33,1.44-1.82.62-.48,1.33-.85,2.15-1.1.81-.25,1.69-.38,2.63-.38,1.3,0,2.5.2,3.59.61s2.04.89,2.86,1.44l-1.59,2.91Z"/>
    <path class="cls-1" d="M249.43,386.78v-18.46h3.59v18.46h-3.59Z"/>
    <path class="cls-1" d="M274.24,371.46h-5.9v15.31h-3.56v-15.31h-5.9v-3.15h15.37v3.15Z"/>
    <path class="cls-1" d="M292.9,383.63v3.15h-12.82v-18.46h12.58v3.15h-9v4.45h7.77v2.91h-7.77v4.81h9.23Z"/>
    <path class="cls-1" d="M299.27,386.78v-18.46h3.59v18.46h-3.59Z"/>
    <path class="cls-1" d="M324.08,371.46h-5.9v15.31h-3.56v-15.31h-5.9v-3.15h15.37v3.15Z"/>
  </g>
  <g>
    <path class="cls-1" d="M77.64,282.84l3.13-.22c.7,3.78,3.51,7.02,7.61,7.02,3.29,0,6.8-2.16,6.8-6.32,0-4.37-4-6.48-9.29-8.64-4.8-2-8.96-5.24-8.96-10.69,0-6.32,5.56-9.88,11.99-9.88,3.29,0,7.07.92,9.99,2.21l-.7,6.8-3.19-.16c-.32-3.4-3.13-5.45-6.59-5.45s-5.78,1.89-5.78,5.13c0,2.97,2.05,4.59,7.13,6.64,5.72,2.32,11.66,6.53,11.66,13.12s-6.32,10.8-13.34,10.8c-3.83,0-6.97-1.19-10.15-2.86l-.32-7.51Z"/>
    <path class="cls-1" d="M118.74,290.45c-2.05,1.84-4.21,2.75-6.64,2.75-3.94,0-5.94-2.59-5.94-7.78v-16.42h-2.65v-3.73c2.43,0,3.89-1.62,4-4.48l.11-3.08h4.54v7.56h6.37v1.3c0,1.51-1.03,2.43-2.81,2.43h-3.56v16.9c0,2.32,1.08,3.73,2.81,3.73.92,0,1.89-.43,2.86-1.08l.92,1.89Z"/>
    <path class="cls-1" d="M143.63,288.18c-2.65,3.29-5.83,5.02-10.15,5.02-8.7,0-13.45-7.13-13.45-15.17,0-7.13,5.67-13.39,13.07-13.39,5.51,0,11.12,3.51,11.12,9.4,0,4.75-4.21,6.64-9.13,6.64h-8.69c.21,5.02,3.56,8.96,8.64,8.96,3.19,0,5.29-1.24,7.61-3.24l.97,1.78ZM135.21,276.73c1.94-.38,3.29-1.4,3.29-3.51,0-2.65-2.05-5.08-5.18-5.08-4.54,0-6.91,4.91-6.91,8.96,1.74,0,6.79.07,8.8-.38Z"/>
    <path class="cls-1" d="M148.81,256.05c0-1.13-1.03-1.24-1.84-1.24h-.49v-2.43h4.32c3.35,0,4.05,1.67,4.05,4.64v30.56c0,1.35.38,1.78,1.46,2.27v2.7h-9.02v-2.7c1.08-.49,1.51-.92,1.51-2.27v-31.54Z"/>
    <path class="cls-1" d="M162.64,256.05c0-1.13-1.03-1.24-1.84-1.24h-.49v-2.43h4.32c3.35,0,4.05,1.67,4.05,4.64v30.56c0,1.35.38,1.78,1.46,2.27v2.7h-9.02v-2.7c1.08-.49,1.51-.92,1.51-2.27v-31.54Z"/>
    <path class="cls-1" d="M196.17,288.18c-2.65,3.29-5.83,5.02-10.15,5.02-8.69,0-13.45-7.13-13.45-15.17,0-7.13,5.67-13.39,13.07-13.39,5.51,0,11.12,3.51,11.12,9.4,0,4.75-4.21,6.64-9.13,6.64h-8.69c.22,5.02,3.56,8.96,8.64,8.96,3.19,0,5.29-1.24,7.61-3.24l.97,1.78ZM187.75,276.73c1.94-.38,3.29-1.4,3.29-3.51,0-2.65-2.05-5.08-5.18-5.08-4.54,0-6.91,4.91-6.91,8.96,1.8,0,6.8.07,8.8-.38Z"/>
    <path class="cls-1" d="M199.52,292.55v-2.75c1.3,0,1.51-1.08,1.51-2.21v-19.06c0-.7-.32-1.13-1.08-1.24-.21-.11-.59-.11-.92-.11v-2.38h3.89c2.48,0,3.78.97,3.94,3.56,1.94-2.32,4.54-3.51,7.72-3.51,5.4,0,8.59,3.46,8.59,9.4v13.34c0,1.08.22,2.21,1.51,2.21v2.75h-9.07v-2.75c1.3,0,1.51-1.08,1.51-2.21v-13.5c0-3.24-1.84-5.56-4.54-5.56-2.43,0-4.81,1.89-5.67,4.7v14.36c0,1.08.22,2.21,1.46,2.21v2.75h-8.86Z"/>
    <path class="cls-1" d="M225.66,254.65v-2.43h4.38c3.46,0,3.89,1.67,4.05,4.48v10.48c1.51-1.78,4.16-2.54,6.59-2.54,7.94,0,11.93,7.29,11.93,14.36,0,7.94-4.64,14.2-13.55,14.2-5.99,0-10.85-2.86-10.85-9.13v-28.19c0-.76-.54-1.03-1.08-1.13-.32-.11-.65-.11-.97-.11h-.49ZM234.08,284.29c0,3.4,1.57,5.56,4.75,5.56,5.72,0,7.29-6.86,7.29-11.39,0-4.16-1.46-9.94-6.59-9.94-2.16,0-3.94,1.03-5.08,2.48l-.05.05c-.11.16-.27.32-.32.54v12.69Z"/>
    <path class="cls-1" d="M268.53,264.64c7.61,0,13.45,6.16,13.45,14.15s-5.94,14.42-13.45,14.42-13.61-6.53-13.61-14.58,5.99-13.99,13.61-13.99ZM268.48,289.8c4.1,0,6.86-4.32,6.86-10.85s-2.81-10.91-7.07-10.91-6.8,4.16-6.8,10.53,2.86,11.23,7.02,11.23Z"/>
    <path class="cls-1" d="M284.95,285.26h2.97c.81,3.08,3.13,4.91,6.26,4.91,2.81,0,4.7-1.4,4.7-3.51,0-3.67-8.53-5.83-11.29-7.94-2.21-1.73-3.29-3.73-3.29-6.16,0-4.75,4.16-7.94,10.31-7.94,2.48,0,5.94.49,8.26,1.51v5.99h-3.13c-.81-2.75-2.81-4.27-5.62-4.27-2.48,0-4.32,1.35-4.32,3.13,0,2.7,5.29,4.91,7.51,5.94,5.56,2.54,7.4,4.59,7.4,8.21,0,4.7-4.59,8.05-10.85,8.05-3.35,0-5.99-.92-8.91-2.38v-5.56Z"/>
    <path class="cls-1" d="M330.47,287.75v.05c-2.75,3.46-6.32,5.4-10.8,5.4-7.34,0-12.69-5.89-12.69-14.15s5.72-14.42,14.37-14.42c3.29,0,5.67.92,8.59,2.16v5.35h-3.08c-.16-.38-.27-.76-.49-1.08-1.03-2.11-2.92-3.29-5.24-3.29-4.43,0-7.56,4.64-7.56,11.02s3.24,10.69,8.05,10.69c2.54,0,4.91-1.13,6.75-3.4.22-.22.49-.59.76-.97l1.35,2.65Z"/>
    <path class="cls-1" d="M333.22,292.55v-2.7l.27-.11c.49-.27,1.24-.7,1.24-2.16v-31.54c0-.86-.86-1.24-2.05-1.24h-.49v-2.43h4.54c3.4,0,4.16,1.51,4.16,6.16v9.18c1.78-2.05,3.73-2.92,6.37-2.92,5.56,0,9.4,3.73,9.4,9.13v13.66c0,1.3.43,1.78,1.51,2.27v2.7h-9.07v-2.7c1.08-.38,1.62-1.13,1.62-2.27v-13.5c0-2.97-1.84-5.72-4.86-5.72-2.21,0-4.21,1.51-5.24,4.05v15.17c0,1.3.76,1.84,1.78,2.27v2.7h-9.18Z"/>
  </g>
</svg>